<?xml version="1.0" encoding="UTF-8" standalone="no"?>
<!DOCTYPE svg PUBLIC "-//W3C//DTD SVG 1.1//EN"
 "http://www.w3.org/Graphics/SVG/1.1/DTD/svg11.dtd">
<!-- Generated by graphviz version 14.1.2 (0)
 -->
<!-- Title: c4_deployment Pages: 1 -->
<svg width="1973pt" height="527pt"
 viewBox="0.00 0.00 1973.00 527.00" xmlns="http://www.w3.org/2000/svg" xmlns:xlink="http://www.w3.org/1999/xlink">
<g id="graph0" class="graph" transform="scale(1 1) rotate(0) translate(25.2 501.54)">
<title>c4_deployment</title>
<polygon fill="white" stroke="none" points="-25.2,25.2 -25.2,-501.54 1948.2,-501.54 1948.2,25.2 -25.2,25.2"/>
<text xml:space="preserve" text-anchor="middle" x="961.5" y="-456.19" font-family="Helvetica,sans-Serif" font-size="17.00">VCL — Deployment View &#160;(subsystem · identity/SA · reads/writes · trust boundary)</text>
<g id="clust1" class="cluster">
<title>cluster_ws</title>
<path fill="#fbf3e6" stroke="#b8860b" d="M262,-337.75C262,-337.75 1400,-337.75 1400,-337.75 1406,-337.75 1412,-343.75 1412,-349.75 1412,-349.75 1412,-428.84 1412,-428.84 1412,-434.84 1406,-440.84 1400,-440.84 1400,-440.84 262,-440.84 262,-440.84 256,-440.84 250,-434.84 250,-428.84 250,-428.84 250,-349.75 250,-349.75 250,-343.75 256,-337.75 262,-337.75"/>
<text xml:space="preserve" text-anchor="middle" x="831" y="-425.44" font-family="Helvetica,sans-Serif" font-size="12.00">Operator workstation — local CLI · ON&#45;DEMAND SCRIPTS</text>
</g>
<g id="clust2" class="cluster">
<title>cluster_cs</title>
<path fill="#f3eefb" stroke="#6b46c1" d="M1615,-157.9C1615,-157.9 1903,-157.9 1903,-157.9 1909,-157.9 1915,-163.9 1915,-169.9 1915,-169.9 1915,-249 1915,-249 1915,-255 1909,-261 1903,-261 1903,-261 1615,-261 1615,-261 1609,-261 1603,-255 1603,-249 1603,-249 1603,-169.9 1603,-169.9 1603,-163.9 1609,-157.9 1615,-157.9"/>
<text xml:space="preserve" text-anchor="middle" x="1759" y="-245.59" font-family="Helvetica,sans-Serif" font-size="12.00">Cloud Shell — browser · ON&#45;DEMAND (steward)</text>
</g>
<g id="clust3" class="cluster">
<title>cluster_gcp</title>
<path fill="#eef4ff" stroke="#3355aa" d="M20,-8C20,-8 1550,-8 1550,-8 1556,-8 1562,-14 1562,-20 1562,-20 1562,-285.25 1562,-285.25 1562,-291.25 1556,-297.25 1550,-297.25 1550,-297.25 20,-297.25 20,-297.25 14,-297.25 8,-291.25 8,-285.25 8,-285.25 8,-20 8,-20 8,-14 14,-8 20,-8"/>
<text xml:space="preserve" text-anchor="middle" x="785" y="-280.89" font-family="Helvetica,sans-Serif" font-size="13.00">Google Cloud project — TRUST BOUNDARY</text>
</g>
<g id="clust4" class="cluster">
<title>cluster_run</title>
<path fill="#dcf3e2" stroke="#2f7d3a" d="M945,-159.9C945,-159.9 1301,-159.9 1301,-159.9 1307,-159.9 1313,-165.9 1313,-171.9 1313,-171.9 1313,-246.25 1313,-246.25 1313,-252.25 1307,-258.25 1301,-258.25 1301,-258.25 945,-258.25 945,-258.25 939,-258.25 933,-252.25 933,-246.25 933,-246.25 933,-171.9 933,-171.9 933,-165.9 939,-159.9 945,-159.9"/>
<text xml:space="preserve" text-anchor="middle" x="1123" y="-243.8" font-family="Helvetica,sans-Serif" font-size="11.00">Cloud Run (us&#45;central1) — DEPLOYED SERVICE</text>
</g>
<g id="clust5" class="cluster">
<title>cluster_mgd</title>
<path fill="#eef0f2" stroke="#666677" d="M36,-24C36,-24 1534,-24 1534,-24 1540,-24 1546,-30 1546,-36 1546,-36 1546,-105.41 1546,-105.41 1546,-111.41 1540,-117.41 1534,-117.41 1534,-117.41 36,-117.41 36,-117.41 30,-117.41 24,-111.41 24,-105.41 24,-105.41 24,-36 24,-36 24,-30 30,-24 36,-24"/>
<text xml:space="preserve" text-anchor="middle" x="785" y="-102.95" font-family="Helvetica,sans-Serif" font-size="11.00">Managed GCP services</text>
</g>
<!-- validator -->
<g id="node1" class="node">
<title>validator</title>
<path fill="#fdf0d5" stroke="#b8860b" d="M847.71,-404.59C847.71,-404.59 580.29,-404.59 580.29,-404.59 574.29,-404.59 568.29,-398.59 568.29,-392.59 568.29,-392.59 568.29,-363.75 568.29,-363.75 568.29,-357.75 574.29,-351.75 580.29,-351.75 580.29,-351.75 847.71,-351.75 847.71,-351.75 853.71,-351.75 859.71,-357.75 859.71,-363.75 859.71,-363.75 859.71,-392.59 859.71,-392.59 859.71,-398.59 853.71,-404.59 847.71,-404.59"/>
<text xml:space="preserve" text-anchor="start" x="621.75" y="-388.17" font-family="Helvetica,sans-Serif" font-weight="bold" font-size="10.00">VALIDATOR</text>
<text xml:space="preserve" text-anchor="start" x="678.75" y="-388.17" font-family="Helvetica,sans-Serif" font-size="10.00"> — vcl.py seal/check/enforce</text>
<text xml:space="preserve" text-anchor="start" x="581.25" y="-379.12" font-family="Helvetica,sans-Serif" font-size="9.00">identity: invoking operator · runs&#45;as vcl&#45;validator SA </text>
<text xml:space="preserve" text-anchor="start" x="792" y="-379.12" font-family="Helvetica,sans-Serif" font-weight="bold" font-size="9.00">UNVERIFIED</text>
<text xml:space="preserve" text-anchor="start" x="635.25" y="-370.12" font-family="Helvetica,sans-Serif" font-size="9.00">writes: verification verdict · logs/vcl&#45;drift</text>
<text xml:space="preserve" text-anchor="start" x="602.62" y="-361.12" font-family="Helvetica,sans-Serif" font-size="9.00">reads: BQ etags · DQ scan · DP context  ·  INV&#45;1 / INV&#45;2</text>
</g>
<!-- catalog -->
<g id="node7" class="node">
<title>catalog</title>
<path fill="#e3e7ec" stroke="#666677" d="M1522.21,-77.95C1522.21,-77.95 1179.79,-77.95 1179.79,-77.95 1173.79,-77.95 1167.79,-71.95 1167.79,-65.95 1167.79,-65.95 1167.79,-53.95 1167.79,-53.95 1167.79,-47.95 1173.79,-41.95 1179.79,-41.95 1179.79,-41.95 1522.21,-41.95 1522.21,-41.95 1528.21,-41.95 1534.21,-47.95 1534.21,-53.95 1534.21,-53.95 1534.21,-65.95 1534.21,-65.95 1534.21,-71.95 1528.21,-77.95 1522.21,-77.95"/>
<text xml:space="preserve" text-anchor="start" x="1280.5" y="-60.95" font-family="Helvetica,sans-Serif" font-weight="bold" font-size="10.00">Knowledge Catalog / Dataplex</text>
<text xml:space="preserve" text-anchor="start" x="1180.75" y="-51.9" font-family="Helvetica,sans-Serif" font-size="9.00">DP entry + verification / governance&#45;drift / overview aspects · customers&#45;quality scan</text>
</g>
<!-- validator&#45;&gt;catalog -->
<g id="edge1" class="edge">
<title>validator&#45;&gt;catalog</title>
<path fill="none" stroke="#555566" d="M726.51,-351.34C734.01,-335.73 743.68,-315.4 752,-297.25 780.2,-235.71 759.12,-198.21 813.5,-157.9 873.66,-113.32 1074.56,-131.98 1148,-117.41 1194.74,-108.13 1246.47,-93.68 1286.01,-81.72"/>
<polygon fill="#555566" stroke="#555566" points="1286.83,-85.13 1295.38,-78.86 1284.79,-78.43 1286.83,-85.13"/>
<text xml:space="preserve" text-anchor="middle" x="868.25" y="-195.02" font-family="Helvetica,sans-Serif" font-size="9.00">write verdict / read anchors</text>
</g>
<!-- bq -->
<g id="node8" class="node">
<title>bq</title>
<path fill="#e3e7ec" stroke="#666677" d="M768.34,-79.55C768.34,-81.95 703.19,-83.91 623,-83.91 542.81,-83.91 477.66,-81.95 477.66,-79.55 477.66,-79.55 477.66,-40.36 477.66,-40.36 477.66,-37.95 542.81,-36 623,-36 703.19,-36 768.34,-37.95 768.34,-40.36 768.34,-40.36 768.34,-79.55 768.34,-79.55"/>
<path fill="none" stroke="#666677" d="M768.34,-79.55C768.34,-77.15 703.19,-75.19 623,-75.19 542.81,-75.19 477.66,-77.15 477.66,-79.55"/>
<text xml:space="preserve" text-anchor="start" x="600.88" y="-60.95" font-family="Helvetica,sans-Serif" font-weight="bold" font-size="10.00">BigQuery</text>
<text xml:space="preserve" text-anchor="start" x="490.62" y="-51.9" font-family="Helvetica,sans-Serif" font-size="9.00">ecommerce base + ecommerce_views (customers_safe, PII&#45;safe)</text>
</g>
<!-- validator&#45;&gt;bq -->
<g id="edge2" class="edge">
<title>validator&#45;&gt;bq</title>
<path fill="none" stroke="#555566" d="M612.35,-351.3C563.91,-336.71 513.5,-317.4 499.5,-297.25 464.17,-246.38 472.42,-213.6 499.5,-157.9 513.45,-129.21 540.46,-106.49 565.68,-90.28"/>
<polygon fill="#555566" stroke="#555566" points="567.26,-93.41 573.93,-85.18 563.58,-87.45 567.26,-93.41"/>
<text xml:space="preserve" text-anchor="middle" x="521.25" y="-195.02" font-family="Helvetica,sans-Serif" font-size="9.00">read etags</text>
</g>
<!-- alerting -->
<g id="node10" class="node">
<title>alerting</title>
<path fill="#e3e7ec" stroke="#666677" d="M1115.96,-77.95C1115.96,-77.95 820.04,-77.95 820.04,-77.95 814.04,-77.95 808.04,-71.95 808.04,-65.95 808.04,-65.95 808.04,-53.95 808.04,-53.95 808.04,-47.95 814.04,-41.95 820.04,-41.95 820.04,-41.95 1115.96,-41.95 1115.96,-41.95 1121.96,-41.95 1127.96,-47.95 1127.96,-53.95 1127.96,-53.95 1127.96,-65.95 1127.96,-65.95 1127.96,-71.95 1121.96,-77.95 1115.96,-77.95"/>
<text xml:space="preserve" text-anchor="start" x="875" y="-60.95" font-family="Helvetica,sans-Serif" font-weight="bold" font-size="10.00">Monitoring + Logging + Secret Manager</text>
<text xml:space="preserve" text-anchor="start" x="821" y="-51.9" font-family="Helvetica,sans-Serif" font-size="9.00">logs/vcl&#45;drift → policy &#39;VCL Drift Detected&#39; → Slack + email · slack secrets</text>
</g>
<!-- validator&#45;&gt;alerting -->
<g id="edge3" class="edge">
<title>validator&#45;&gt;alerting</title>
<path fill="none" stroke="#555566" d="M671.14,-351.54C652.69,-337.96 633.06,-319.47 623,-297.25 597.46,-240.83 584.78,-206.64 623,-157.9 669.6,-98.49 715.27,-137.71 788,-117.41 827,-106.52 870.3,-92.98 904.67,-81.89"/>
<polygon fill="#555566" stroke="#555566" points="905.62,-85.26 914.05,-78.85 903.46,-78.6 905.62,-85.26"/>
<text xml:space="preserve" text-anchor="middle" x="684.5" y="-195.02" font-family="Helvetica,sans-Serif" font-size="9.00">emit VCL_DRIFT_DETECTED</text>
</g>
<!-- triage -->
<g id="node2" class="node">
<title>triage</title>
<path fill="#fdf0d5" stroke="#b8860b" d="M516.21,-404.59C516.21,-404.59 275.79,-404.59 275.79,-404.59 269.79,-404.59 263.79,-398.59 263.79,-392.59 263.79,-392.59 263.79,-363.75 263.79,-363.75 263.79,-357.75 269.79,-351.75 275.79,-351.75 275.79,-351.75 516.21,-351.75 516.21,-351.75 522.21,-351.75 528.21,-357.75 528.21,-363.75 528.21,-363.75 528.21,-392.59 528.21,-392.59 528.21,-398.59 522.21,-404.59 516.21,-404.59"/>
<text xml:space="preserve" text-anchor="start" x="341.25" y="-388.17" font-family="Helvetica,sans-Serif" font-weight="bold" font-size="10.00">TRIAGE</text>
<text xml:space="preserve" text-anchor="start" x="379.5" y="-388.17" font-family="Helvetica,sans-Serif" font-size="10.00"> — vcl_triage.py</text>
<text xml:space="preserve" text-anchor="start" x="276.75" y="-379.12" font-family="Helvetica,sans-Serif" font-size="9.00">identity: operator ADC · runs&#45;as vcl&#45;triage SA </text>
<text xml:space="preserve" text-anchor="start" x="460.5" y="-379.12" font-family="Helvetica,sans-Serif" font-weight="bold" font-size="9.00">UNVERIFIED</text>
<text xml:space="preserve" text-anchor="start" x="294.75" y="-370.12" font-family="Helvetica,sans-Serif" font-size="9.00">writes: ONLY Firestore vcl&#45;audit (never the verdict)</text>
<text xml:space="preserve" text-anchor="start" x="307.12" y="-361.12" font-family="Helvetica,sans-Serif" font-size="9.00">reads: pinned drift text · calls Vertex  ·  INV&#45;3</text>
</g>
<!-- auditdb -->
<g id="node9" class="node">
<title>auditdb</title>
<path fill="#e3e7ec" stroke="#666677" d="M305.84,-79.55C305.84,-81.95 245.4,-83.91 171,-83.91 96.6,-83.91 36.16,-81.95 36.16,-79.55 36.16,-79.55 36.16,-40.36 36.16,-40.36 36.16,-37.95 96.6,-36 171,-36 245.4,-36 305.84,-37.95 305.84,-40.36 305.84,-40.36 305.84,-79.55 305.84,-79.55"/>
<path fill="none" stroke="#666677" d="M305.84,-79.55C305.84,-77.15 245.4,-75.19 171,-75.19 96.6,-75.19 36.16,-77.15 36.16,-79.55"/>
<text xml:space="preserve" text-anchor="start" x="129" y="-60.95" font-family="Helvetica,sans-Serif" font-weight="bold" font-size="10.00">Firestore vcl&#45;audit</text>
<text xml:space="preserve" text-anchor="start" x="49.12" y="-51.9" font-family="Helvetica,sans-Serif" font-size="9.00">collection vcl_triage_audit · triage SA scoped to this DB only</text>
</g>
<!-- triage&#45;&gt;auditdb -->
<g id="edge8" class="edge">
<title>triage&#45;&gt;auditdb</title>
<path fill="none" stroke="#555566" d="M367.81,-351.55C352.04,-336.52 332.54,-316.69 317.25,-297.25 264.03,-229.54 213.93,-141.37 188.46,-94.19"/>
<polygon fill="#555566" stroke="#555566" points="191.64,-92.71 183.83,-85.55 185.47,-96.02 191.64,-92.71"/>
<text xml:space="preserve" text-anchor="middle" x="347.62" y="-195.02" font-family="Helvetica,sans-Serif" font-size="9.00">append advice</text>
</g>
<!-- vertex -->
<g id="node11" class="node">
<title>vertex</title>
<path fill="#e3e7ec" stroke="#666677" d="M425.96,-77.95C425.96,-77.95 358.04,-77.95 358.04,-77.95 352.04,-77.95 346.04,-71.95 346.04,-65.95 346.04,-65.95 346.04,-53.95 346.04,-53.95 346.04,-47.95 352.04,-41.95 358.04,-41.95 358.04,-41.95 425.96,-41.95 425.96,-41.95 431.96,-41.95 437.96,-47.95 437.96,-53.95 437.96,-53.95 437.96,-65.95 437.96,-65.95 437.96,-71.95 431.96,-77.95 425.96,-77.95"/>
<text xml:space="preserve" text-anchor="start" x="371.38" y="-60.95" font-family="Helvetica,sans-Serif" font-weight="bold" font-size="10.00">Vertex AI</text>
<text xml:space="preserve" text-anchor="start" x="359" y="-51.9" font-family="Helvetica,sans-Serif" font-size="9.00">gemini&#45;2.5&#45;flash</text>
</g>
<!-- triage&#45;&gt;vertex -->
<g id="edge7" class="edge">
<title>triage&#45;&gt;vertex</title>
<path fill="none" stroke="#555566" d="M393.16,-351.29C391.58,-335.66 389.79,-315.33 389,-297.25 385.73,-222.5 388.64,-134.35 390.59,-89.81"/>
<polygon fill="#555566" stroke="#555566" points="394.08,-90.11 391.03,-79.96 387.08,-89.79 394.08,-90.11"/>
<text xml:space="preserve" text-anchor="middle" x="404" y="-195.02" font-family="Helvetica,sans-Serif" font-size="9.00">classify</text>
</g>
<!-- watcher -->
<g id="node3" class="node">
<title>watcher</title>
<path fill="#fdf0d5" stroke="#b8860b" d="M1386.09,-396.17C1386.09,-396.17 1171.91,-396.17 1171.91,-396.17 1165.91,-396.17 1159.91,-390.17 1159.91,-384.17 1159.91,-384.17 1159.91,-372.17 1159.91,-372.17 1159.91,-366.17 1165.91,-360.17 1171.91,-360.17 1171.91,-360.17 1386.09,-360.17 1386.09,-360.17 1392.09,-360.17 1398.09,-366.17 1398.09,-372.17 1398.09,-372.17 1398.09,-384.17 1398.09,-384.17 1398.09,-390.17 1392.09,-396.17 1386.09,-396.17"/>
<text xml:space="preserve" text-anchor="start" x="1172.88" y="-379.17" font-family="Helvetica,sans-Serif" font-weight="bold" font-size="10.00">WATCHER</text>
<text xml:space="preserve" text-anchor="start" x="1223.88" y="-379.17" font-family="Helvetica,sans-Serif" font-size="10.00"> — drift_watcher.py  </text>
<text xml:space="preserve" text-anchor="start" x="1314.62" y="-379.17" font-family="Helvetica,sans-Serif" font-size="10.00" fill="#c0272d">SUPERSEDED</text>
<text xml:space="preserve" text-anchor="start" x="1173.25" y="-370.12" font-family="Helvetica,sans-Serif" font-size="9.00">identity: operator · reads verdict · publishes Pub/Sub</text>
</g>
<!-- watcher&#45;&gt;catalog -->
<g id="edge10" class="edge">
<title>watcher&#45;&gt;catalog</title>
<path fill="none" stroke="#555566" stroke-dasharray="5,2" d="M1354.72,-359.75C1390.95,-347.8 1432.18,-328.29 1459,-297.25 1507.66,-240.91 1493.91,-209.66 1504,-135.91 1507.44,-110.76 1491.39,-94.05 1468.52,-82.95"/>
<polygon fill="#555566" stroke="#555566" points="1469.92,-79.74 1459.35,-78.98 1467.14,-86.16 1469.92,-79.74"/>
<text xml:space="preserve" text-anchor="middle" x="1525.4" y="-195.02" font-family="Helvetica,sans-Serif" font-size="9.00">read verdict</text>
</g>
<!-- demo -->
<g id="node4" class="node">
<title>demo</title>
<path fill="#fdf0d5" stroke="#b8860b" d="M1108.09,-400.09C1108.09,-400.09 911.91,-400.09 911.91,-400.09 905.91,-400.09 899.91,-394.09 899.91,-388.09 899.91,-388.09 899.91,-368.25 899.91,-368.25 899.91,-362.25 905.91,-356.25 911.91,-356.25 911.91,-356.25 1108.09,-356.25 1108.09,-356.25 1114.09,-356.25 1120.09,-362.25 1120.09,-368.25 1120.09,-368.25 1120.09,-388.09 1120.09,-388.09 1120.09,-394.09 1114.09,-400.09 1108.09,-400.09"/>
<text xml:space="preserve" text-anchor="start" x="929.75" y="-383.67" font-family="Helvetica,sans-Serif" font-weight="bold" font-size="10.00">DEMO agent</text>
<text xml:space="preserve" text-anchor="start" x="988.25" y="-383.67" font-family="Helvetica,sans-Serif" font-size="10.00"> — vcl_audience_demo</text>
<text xml:space="preserve" text-anchor="start" x="938.38" y="-374.62" font-family="Helvetica,sans-Serif" font-size="9.00">identity: operator · naive about VCL</text>
<text xml:space="preserve" text-anchor="start" x="912.88" y="-365.62" font-family="Helvetica,sans-Serif" font-size="9.00">calls the gate over MCP · queries BQ safe views</text>
</g>
<!-- gate -->
<g id="node6" class="node">
<title>gate</title>
<path fill="#c3ecce" stroke="#2f7d3a" d="M1288.59,-224.75C1288.59,-224.75 957.41,-224.75 957.41,-224.75 951.41,-224.75 945.41,-218.75 945.41,-212.75 945.41,-212.75 945.41,-183.9 945.41,-183.9 945.41,-177.9 951.41,-171.9 957.41,-171.9 957.41,-171.9 1288.59,-171.9 1288.59,-171.9 1294.59,-171.9 1300.59,-177.9 1300.59,-183.9 1300.59,-183.9 1300.59,-212.75 1300.59,-212.75 1300.59,-218.75 1294.59,-224.75 1288.59,-224.75"/>
<text xml:space="preserve" text-anchor="start" x="1069" y="-208.32" font-family="Helvetica,sans-Serif" font-weight="bold" font-size="10.00">GATE</text>
<text xml:space="preserve" text-anchor="start" x="1096" y="-208.32" font-family="Helvetica,sans-Serif" font-size="10.00"> — vcl_wrapper.py</text>
<text xml:space="preserve" text-anchor="start" x="958.38" y="-199.27" font-family="Helvetica,sans-Serif" font-size="9.00">identity: SA vcl&#45;wrapper&#45;run (catalogViewer · dataProductsViewer · mcp.toolUser)</text>
<text xml:space="preserve" text-anchor="start" x="1002.62" y="-190.27" font-family="Helvetica,sans-Serif" font-size="9.00">READ&#45;ONLY · reads verification aspect only · writes nothing</text>
<text xml:space="preserve" text-anchor="start" x="997.75" y="-181.27" font-family="Helvetica,sans-Serif" font-size="9.00">delivers iff source_tier = verified, else withholds  ·  INV&#45;4 / 5 / 6</text>
</g>
<!-- demo&#45;&gt;gate -->
<g id="edge5" class="edge">
<title>demo&#45;&gt;gate</title>
<path fill="none" stroke="#555566" d="M1023.41,-356.07C1042.43,-326.13 1077.5,-270.93 1100.54,-234.68"/>
<polygon fill="#555566" stroke="#555566" points="1103.47,-236.58 1105.88,-226.27 1097.56,-232.83 1103.47,-236.58"/>
<text xml:space="preserve" text-anchor="middle" x="1098.43" y="-307.19" font-family="Helvetica,sans-Serif" font-size="9.00">lookup_context (MCP)</text>
</g>
<!-- demo&#45;&gt;bq -->
<g id="edge6" class="edge">
<title>demo&#45;&gt;bq</title>
<path fill="none" stroke="#555566" d="M1076.86,-355.82C1097.06,-349.66 1119.35,-343.15 1140,-337.75 1220.58,-316.64 1270.85,-362.2 1323,-297.25 1370.93,-237.55 1373.48,-169.65 1311,-125.41 1299.14,-117.01 802.31,-119.9 788,-117.41 754.13,-111.5 717.84,-99.73 687.95,-88.46"/>
<polygon fill="#555566" stroke="#555566" points="689.24,-85.2 678.65,-84.88 686.73,-91.74 689.24,-85.2"/>
<text xml:space="preserve" text-anchor="middle" x="1392.6" y="-195.02" font-family="Helvetica,sans-Serif" font-size="9.00">query safe views</text>
</g>
<!-- steward -->
<g id="node5" class="node">
<title>steward</title>
<path fill="#ece3fb" stroke="#6b46c1" d="M1889.34,-224.75C1889.34,-224.75 1628.66,-224.75 1628.66,-224.75 1622.66,-224.75 1616.66,-218.75 1616.66,-212.75 1616.66,-212.75 1616.66,-183.9 1616.66,-183.9 1616.66,-177.9 1622.66,-171.9 1628.66,-171.9 1628.66,-171.9 1889.34,-171.9 1889.34,-171.9 1895.34,-171.9 1901.34,-177.9 1901.34,-183.9 1901.34,-183.9 1901.34,-212.75 1901.34,-212.75 1901.34,-218.75 1895.34,-224.75 1889.34,-224.75"/>
<text xml:space="preserve" text-anchor="start" x="1632.25" y="-208.32" font-family="Helvetica,sans-Serif" font-weight="bold" font-size="10.00">STEWARD re&#45;cert</text>
<text xml:space="preserve" text-anchor="start" x="1714.75" y="-208.32" font-family="Helvetica,sans-Serif" font-size="10.00"> — walkthrough + write_drift_aspect.py</text>
<text xml:space="preserve" text-anchor="start" x="1690.38" y="-199.27" font-family="Helvetica,sans-Serif" font-size="9.00">identity: the steward (their gcloud)</text>
<text xml:space="preserve" text-anchor="start" x="1629.62" y="-190.27" font-family="Helvetica,sans-Serif" font-size="9.00">runs vcl.py seal (verdict) · writes governance&#45;drift display aspect</text>
<text xml:space="preserve" text-anchor="start" x="1693.38" y="-181.27" font-family="Helvetica,sans-Serif" font-size="9.00">opened by the pushed deep link</text>
</g>
<!-- steward&#45;&gt;catalog -->
<g id="edge9" class="edge">
<title>steward&#45;&gt;catalog</title>
<path fill="none" stroke="#555566" d="M1690.21,-171.55C1652.01,-157.47 1603.55,-139.98 1560,-125.41 1513.99,-110.01 1461.84,-93.92 1421.14,-81.67"/>
<polygon fill="#555566" stroke="#555566" points="1422.28,-78.36 1411.7,-78.84 1420.27,-85.06 1422.28,-78.36"/>
<text xml:space="preserve" text-anchor="middle" x="1629.99" y="-127.36" font-family="Helvetica,sans-Serif" font-size="9.00">seal + display aspect</text>
</g>
<!-- gate&#45;&gt;catalog -->
<g id="edge4" class="edge">
<title>gate&#45;&gt;catalog</title>
<path fill="none" stroke="#555566" d="M1166.15,-171.51C1208.17,-146.39 1271.45,-108.54 1311.99,-84.29"/>
<polygon fill="#555566" stroke="#555566" points="1313.69,-87.35 1320.48,-79.21 1310.1,-81.34 1313.69,-87.35"/>
<text xml:space="preserve" text-anchor="middle" x="1270.75" y="-127.36" font-family="Helvetica,sans-Serif" font-size="9.00">read verdict only</text>
</g>
<!-- alerting&#45;&gt;steward -->
<g id="edge11" class="edge">
<title>alerting&#45;&gt;steward</title>
<path fill="none" stroke="#c0272d" stroke-width="1.6" d="M1011.94,-78.35C1047.89,-91.7 1100.4,-109.18 1148,-117.41 1240.04,-133.3 1264.97,-117.05 1358,-125.41 1409.19,-130 1536.46,-148.54 1587,-157.9 1604.34,-161.12 1622.57,-164.88 1640.43,-168.78"/>
<polygon fill="#c0272d" stroke="#c0272d" stroke-width="1.6" points="1639.52,-172.16 1650.04,-170.9 1641.03,-165.32 1639.52,-172.16"/>
<text xml:space="preserve" text-anchor="middle" x="1491.18" y="-127.36" font-family="Helvetica,sans-Serif" font-size="9.00" fill="#c0272d">alert: SEE url + deep link</text>
</g>
</g>
</svg>
