<?xml version="1.0" encoding="UTF-8" standalone="no"?>
<!DOCTYPE svg PUBLIC "-//W3C//DTD SVG 1.1//EN"
 "http://www.w3.org/Graphics/SVG/1.1/DTD/svg11.dtd">
<!-- Generated by graphviz version 14.1.2 (0)
 -->
<!-- Title: negative_flow Pages: 1 -->
<svg width="760pt" height="915pt"
 viewBox="0.00 0.00 760.00 915.00" xmlns="http://www.w3.org/2000/svg" xmlns:xlink="http://www.w3.org/1999/xlink">
<g id="graph0" class="graph" transform="scale(1 1) rotate(0) translate(28.8 886.02)">
<title>negative_flow</title>
<polygon fill="white" stroke="none" points="-28.8,28.8 -28.8,-886.02 730.8,-886.02 730.8,28.8 -28.8,28.8"/>
<text xml:space="preserve" text-anchor="middle" x="351" y="-837.07" font-family="Helvetica,sans-Serif" font-size="17.00">VCL — Negative&#45;Path / Threat&#45;Block Flow &#160;(every path is BLOCKED)</text>
<g id="clust1" class="cluster">
<title>cluster_1</title>
<path fill="none" stroke="#c0272d" d="M20,-744.38C20,-744.38 682,-744.38 682,-744.38 688,-744.38 694,-750.38 694,-756.38 694,-756.38 694,-809.72 694,-809.72 694,-815.72 688,-821.72 682,-821.72 682,-821.72 20,-821.72 20,-821.72 14,-821.72 8,-815.72 8,-809.72 8,-809.72 8,-756.38 8,-756.38 8,-750.38 14,-744.38 20,-744.38"/>
<text xml:space="preserve" text-anchor="middle" x="351" y="-807.27" font-family="Helvetica,sans-Serif" font-size="11.00">1 — Agent fabricates a schema after a withhold</text>
</g>
<g id="clust3" class="cluster">
<title>cluster_2</title>
<path fill="none" stroke="#c0272d" d="M41,-646.04C41,-646.04 638,-646.04 638,-646.04 644,-646.04 650,-652.04 650,-658.04 650,-658.04 650,-711.38 650,-711.38 650,-717.38 644,-723.38 638,-723.38 638,-723.38 41,-723.38 41,-723.38 35,-723.38 29,-717.38 29,-711.38 29,-711.38 29,-658.04 29,-658.04 29,-652.04 35,-646.04 41,-646.04"/>
<text xml:space="preserve" text-anchor="middle" x="339.5" y="-708.93" font-family="Helvetica,sans-Serif" font-size="11.00">2 — Agent targets PII directly, bypassing context</text>
</g>
<g id="clust5" class="cluster">
<title>cluster_3</title>
<path fill="none" stroke="#c0272d" d="M49,-547.7C49,-547.7 635,-547.7 635,-547.7 641,-547.7 647,-553.7 647,-559.7 647,-559.7 647,-613.04 647,-613.04 647,-619.04 641,-625.04 635,-625.04 635,-625.04 49,-625.04 49,-625.04 43,-625.04 37,-619.04 37,-613.04 37,-613.04 37,-559.7 37,-559.7 37,-553.7 43,-547.7 49,-547.7"/>
<text xml:space="preserve" text-anchor="middle" x="342" y="-610.59" font-family="Helvetica,sans-Serif" font-size="11.00">3 — Someone hand&#45;edits the DISPLAY aspect to RESOLVED</text>
</g>
<g id="clust7" class="cluster">
<title>cluster_4</title>
<path fill="none" stroke="#c0272d" d="M54,-449.36C54,-449.36 674,-449.36 674,-449.36 680,-449.36 686,-455.36 686,-461.36 686,-461.36 686,-514.7 686,-514.7 686,-520.7 680,-526.7 674,-526.7 674,-526.7 54,-526.7 54,-526.7 48,-526.7 42,-520.7 42,-514.7 42,-514.7 42,-461.36 42,-461.36 42,-455.36 48,-449.36 54,-449.36"/>
<text xml:space="preserve" text-anchor="middle" x="364" y="-512.25" font-family="Helvetica,sans-Serif" font-size="11.00">4 — LLM advice tries to influence the verdict</text>
</g>
<g id="clust9" class="cluster">
<title>cluster_5</title>
<path fill="none" stroke="#c0272d" d="M66,-351.02C66,-351.02 616,-351.02 616,-351.02 622,-351.02 628,-357.02 628,-363.02 628,-363.02 628,-416.36 628,-416.36 628,-422.36 622,-428.36 616,-428.36 616,-428.36 66,-428.36 66,-428.36 60,-428.36 54,-422.36 54,-416.36 54,-416.36 54,-363.02 54,-363.02 54,-357.02 60,-351.02 66,-351.02"/>
<text xml:space="preserve" text-anchor="middle" x="341" y="-413.91" font-family="Helvetica,sans-Serif" font-size="11.00">5 — Triage SA tries to write outside its store</text>
</g>
<g id="clust11" class="cluster">
<title>cluster_6</title>
<path fill="none" stroke="#c0272d" d="M73,-252.68C73,-252.68 591,-252.68 591,-252.68 597,-252.68 603,-258.68 603,-264.68 603,-264.68 603,-318.02 603,-318.02 603,-324.02 597,-330.02 591,-330.02 591,-330.02 73,-330.02 73,-330.02 67,-330.02 61,-324.02 61,-318.02 61,-318.02 61,-264.68 61,-264.68 61,-258.68 67,-252.68 73,-252.68"/>
<text xml:space="preserve" text-anchor="middle" x="332" y="-315.57" font-family="Helvetica,sans-Serif" font-size="11.00">6 — Substantive drift, steward wants one click</text>
</g>
<g id="clust13" class="cluster">
<title>cluster_7</title>
<path fill="none" stroke="#2f7d3a" d="M67,-130.34C67,-130.34 620,-130.34 620,-130.34 626,-130.34 632,-136.34 632,-142.34 632,-142.34 632,-219.68 632,-219.68 632,-225.68 626,-231.68 620,-231.68 620,-231.68 67,-231.68 67,-231.68 61,-231.68 55,-225.68 55,-219.68 55,-219.68 55,-142.34 55,-142.34 55,-136.34 61,-130.34 67,-130.34"/>
<text xml:space="preserve" text-anchor="middle" x="343.5" y="-217.23" font-family="Helvetica,sans-Serif" font-size="11.00">7 — Failure modes degrade SAFE, not open</text>
</g>
<g id="clust15" class="cluster">
<title>cluster_8</title>
<path fill="none" stroke="#b8860b" d="M48,-8C48,-8 678,-8 678,-8 684,-8 690,-14 690,-20 690,-20 690,-97.34 690,-97.34 690,-103.34 684,-109.34 678,-109.34 678,-109.34 48,-109.34 48,-109.34 42,-109.34 36,-103.34 36,-97.34 36,-97.34 36,-20 36,-20 36,-14 42,-8 48,-8"/>
<text xml:space="preserve" text-anchor="middle" x="363" y="-94.89" font-family="Helvetica,sans-Serif" font-size="11.00">KNOWN RESIDUAL — stated, not hidden</text>
</g>
<!-- a1 -->
<g id="node1" class="node">
<title>a1</title>
<path fill="#fdf0d5" stroke="#b8860b" d="M249.84,-792.22C249.84,-792.22 28.16,-792.22 28.16,-792.22 22.16,-792.22 16.16,-786.22 16.16,-780.22 16.16,-780.22 16.16,-764.38 16.16,-764.38 16.16,-758.38 22.16,-752.38 28.16,-752.38 28.16,-752.38 249.84,-752.38 249.84,-752.38 255.84,-752.38 261.84,-758.38 261.84,-764.38 261.84,-764.38 261.84,-780.22 261.84,-780.22 261.84,-786.22 255.84,-792.22 249.84,-792.22"/>
<text xml:space="preserve" text-anchor="start" x="29.12" y="-774.8" font-family="Helvetica,sans-Serif" font-size="10.00">Wrapper WITHHOLDS + &#39;do not infer or fabricate&#39;;</text>
<text xml:space="preserve" text-anchor="start" x="29.12" y="-762.8" font-family="Helvetica,sans-Serif" font-size="10.00">agent invents SQL anyway</text>
</g>
<!-- o1 -->
<g id="node2" class="node">
<title>o1</title>
<path fill="#d7efdb" stroke="#2f7d3a" d="M674.09,-792.22C674.09,-792.22 417.91,-792.22 417.91,-792.22 411.91,-792.22 405.91,-786.22 405.91,-780.22 405.91,-780.22 405.91,-764.38 405.91,-764.38 405.91,-758.38 411.91,-752.38 417.91,-752.38 417.91,-752.38 674.09,-752.38 674.09,-752.38 680.09,-752.38 686.09,-758.38 686.09,-764.38 686.09,-764.38 686.09,-780.22 686.09,-780.22 686.09,-786.22 680.09,-792.22 674.09,-792.22"/>
<text xml:space="preserve" text-anchor="start" x="418.88" y="-774.8" font-family="Helvetica,sans-Serif" font-size="10.00">REFUSED — enforcement is in the TOOL, not the prompt</text>
<text xml:space="preserve" text-anchor="start" x="418.88" y="-762.8" font-family="Helvetica,sans-Serif" font-size="10.00">(PROVEN: two&#45;run demo)</text>
</g>
<!-- a1&#45;&gt;o1 -->
<g id="edge1" class="edge">
<title>a1&#45;&gt;o1</title>
<path fill="none" stroke="black" d="M262.22,-772.3C303.87,-772.3 350.85,-772.3 394.44,-772.3"/>
<polygon fill="black" stroke="black" points="394.22,-775.8 404.22,-772.3 394.22,-768.8 394.22,-775.8"/>
<text xml:space="preserve" text-anchor="start" x="277.62" y="-787.75" font-family="Helvetica,sans-Serif" font-size="9.00">action tool reads the verdict</text>
<text xml:space="preserve" text-anchor="start" x="277.62" y="-777.25" font-family="Helvetica,sans-Serif" font-size="9.00">independently → unverified</text>
</g>
<!-- a2 -->
<g id="node3" class="node">
<title>a2</title>
<path fill="#fdf0d5" stroke="#b8860b" d="M228.83,-691.96C228.83,-691.96 49.17,-691.96 49.17,-691.96 43.17,-691.96 37.17,-685.96 37.17,-679.96 37.17,-679.96 37.17,-667.96 37.17,-667.96 37.17,-661.96 43.17,-655.96 49.17,-655.96 49.17,-655.96 228.83,-655.96 228.83,-655.96 234.83,-655.96 240.83,-661.96 240.83,-667.96 240.83,-667.96 240.83,-679.96 240.83,-679.96 240.83,-685.96 234.83,-691.96 228.83,-691.96"/>
<text xml:space="preserve" text-anchor="middle" x="139" y="-670.46" font-family="Helvetica,sans-Serif" font-size="10.00">Agent: SELECT email FROM customers</text>
</g>
<!-- a1&#45;&gt;a2 -->
<!-- o2 -->
<g id="node4" class="node">
<title>o2</title>
<path fill="#d7efdb" stroke="#2f7d3a" d="M630.46,-693.88C630.46,-693.88 373.54,-693.88 373.54,-693.88 367.54,-693.88 361.54,-687.88 361.54,-681.88 361.54,-681.88 361.54,-666.04 361.54,-666.04 361.54,-660.04 367.54,-654.04 373.54,-654.04 373.54,-654.04 630.46,-654.04 630.46,-654.04 636.46,-654.04 642.46,-660.04 642.46,-666.04 642.46,-666.04 642.46,-681.88 642.46,-681.88 642.46,-687.88 636.46,-693.88 630.46,-693.88"/>
<text xml:space="preserve" text-anchor="start" x="374.5" y="-676.46" font-family="Helvetica,sans-Serif" font-size="10.00">REFUSED — out of scope (only customers_safe + orders</text>
<text xml:space="preserve" text-anchor="start" x="374.5" y="-664.46" font-family="Helvetica,sans-Serif" font-size="10.00">reachable); a 3rd guard also rejects any email&#45;column SQL</text>
</g>
<!-- a2&#45;&gt;o2 -->
<g id="edge2" class="edge">
<title>a2&#45;&gt;o2</title>
<path fill="none" stroke="black" d="M241.08,-673.96C274.81,-673.96 313.11,-673.96 349.76,-673.96"/>
<polygon fill="black" stroke="black" points="349.56,-677.46 359.56,-673.96 349.56,-670.46 349.56,-677.46"/>
<text xml:space="preserve" text-anchor="start" x="256.56" y="-689.41" font-family="Helvetica,sans-Serif" font-size="9.00">tool scope check +</text>
<text xml:space="preserve" text-anchor="start" x="256.56" y="-678.91" font-family="Helvetica,sans-Serif" font-size="9.00">\bemail\b regex guard</text>
</g>
<!-- a3 -->
<g id="node5" class="node">
<title>a3</title>
<path fill="#fdf0d5" stroke="#b8860b" d="M220.96,-595.54C220.96,-595.54 57.04,-595.54 57.04,-595.54 51.04,-595.54 45.04,-589.54 45.04,-583.54 45.04,-583.54 45.04,-567.7 45.04,-567.7 45.04,-561.7 51.04,-555.7 57.04,-555.7 57.04,-555.7 220.96,-555.7 220.96,-555.7 226.96,-555.7 232.96,-561.7 232.96,-567.7 232.96,-567.7 232.96,-583.54 232.96,-583.54 232.96,-589.54 226.96,-595.54 220.96,-595.54"/>
<text xml:space="preserve" text-anchor="start" x="58" y="-578.12" font-family="Helvetica,sans-Serif" font-size="10.00">Governance Drift set to RESOLVED,</text>
<text xml:space="preserve" text-anchor="start" x="58" y="-566.12" font-family="Helvetica,sans-Serif" font-size="10.00">then agent calls lookup_context</text>
</g>
<!-- a2&#45;&gt;a3 -->
<!-- o3 -->
<g id="node6" class="node">
<title>o3</title>
<path fill="#d7efdb" stroke="#2f7d3a" d="M627.21,-593.62C627.21,-593.62 398.79,-593.62 398.79,-593.62 392.79,-593.62 386.79,-587.62 386.79,-581.62 386.79,-581.62 386.79,-569.62 386.79,-569.62 386.79,-563.62 392.79,-557.62 398.79,-557.62 398.79,-557.62 627.21,-557.62 627.21,-557.62 633.21,-557.62 639.21,-563.62 639.21,-569.62 639.21,-569.62 639.21,-581.62 639.21,-581.62 639.21,-587.62 633.21,-593.62 627.21,-593.62"/>
<text xml:space="preserve" text-anchor="middle" x="513" y="-572.12" font-family="Helvetica,sans-Serif" font-size="10.00">WITHHELD — display state cannot certify anything</text>
</g>
<!-- a3&#45;&gt;o3 -->
<g id="edge3" class="edge">
<title>a3&#45;&gt;o3</title>
<path fill="none" stroke="black" d="M233.38,-575.62C276.35,-575.62 328.05,-575.62 375.25,-575.62"/>
<polygon fill="black" stroke="black" points="374.99,-579.12 384.99,-575.62 374.99,-572.12 374.99,-579.12"/>
<text xml:space="preserve" text-anchor="start" x="248.75" y="-591.07" font-family="Helvetica,sans-Serif" font-size="9.00">gate reads the verification</text>
<text xml:space="preserve" text-anchor="start" x="248.75" y="-580.57" font-family="Helvetica,sans-Serif" font-size="9.00">aspect ONLY → still unverified</text>
</g>
<!-- a4 -->
<g id="node7" class="node">
<title>a4</title>
<path fill="#fdf0d5" stroke="#b8860b" d="M216.46,-495.28C216.46,-495.28 61.54,-495.28 61.54,-495.28 55.54,-495.28 49.54,-489.28 49.54,-483.28 49.54,-483.28 49.54,-471.28 49.54,-471.28 49.54,-465.28 55.54,-459.28 61.54,-459.28 61.54,-459.28 216.46,-459.28 216.46,-459.28 222.46,-459.28 228.46,-465.28 228.46,-471.28 228.46,-471.28 228.46,-483.28 228.46,-483.28 228.46,-489.28 222.46,-495.28 216.46,-495.28"/>
<text xml:space="preserve" text-anchor="middle" x="139" y="-473.78" font-family="Helvetica,sans-Serif" font-size="10.00">Triage wants to change source_tier</text>
</g>
<!-- a3&#45;&gt;a4 -->
<!-- o4 -->
<g id="node8" class="node">
<title>o4</title>
<path fill="#d7efdb" stroke="#2f7d3a" d="M665.96,-497.2C665.96,-497.2 454.04,-497.2 454.04,-497.2 448.04,-497.2 442.04,-491.2 442.04,-485.2 442.04,-485.2 442.04,-469.36 442.04,-469.36 442.04,-463.36 448.04,-457.36 454.04,-457.36 454.04,-457.36 665.96,-457.36 665.96,-457.36 671.96,-457.36 677.96,-463.36 677.96,-469.36 677.96,-469.36 677.96,-485.2 677.96,-485.2 677.96,-491.2 671.96,-497.2 665.96,-497.2"/>
<text xml:space="preserve" text-anchor="start" x="455" y="-479.78" font-family="Helvetica,sans-Serif" font-size="10.00">advice cannot reach the gate</text>
<text xml:space="preserve" text-anchor="start" x="455" y="-467.78" font-family="Helvetica,sans-Serif" font-size="10.00">(BY GRANT: wrapper SA has no datastore.user)</text>
</g>
<!-- a4&#45;&gt;o4 -->
<g id="edge4" class="edge">
<title>a4&#45;&gt;o4</title>
<path fill="none" stroke="black" d="M228.8,-477.28C287.47,-477.28 365.03,-477.28 430.35,-477.28"/>
<polygon fill="black" stroke="black" points="430.04,-480.78 440.04,-477.28 430.04,-473.78 430.04,-480.78"/>
<text xml:space="preserve" text-anchor="start" x="244.12" y="-492.73" font-family="Helvetica,sans-Serif" font-size="9.00">triage is a separate file + SA; never calls</text>
<text xml:space="preserve" text-anchor="start" x="244.12" y="-482.23" font-family="Helvetica,sans-Serif" font-size="9.00">seal/enforce; writes ADVICE to Firestore only</text>
</g>
<!-- a5 -->
<g id="node9" class="node">
<title>a5</title>
<path fill="#fdf0d5" stroke="#b8860b" d="M204.08,-398.86C204.08,-398.86 73.92,-398.86 73.92,-398.86 67.92,-398.86 61.92,-392.86 61.92,-386.86 61.92,-386.86 61.92,-371.02 61.92,-371.02 61.92,-365.02 67.92,-359.02 73.92,-359.02 73.92,-359.02 204.08,-359.02 204.08,-359.02 210.08,-359.02 216.08,-365.02 216.08,-371.02 216.08,-371.02 216.08,-386.86 216.08,-386.86 216.08,-392.86 210.08,-398.86 204.08,-398.86"/>
<text xml:space="preserve" text-anchor="start" x="74.88" y="-381.44" font-family="Helvetica,sans-Serif" font-size="10.00">Triage SA: write to a different</text>
<text xml:space="preserve" text-anchor="start" x="74.88" y="-369.44" font-family="Helvetica,sans-Serif" font-size="10.00">Firestore database</text>
</g>
<!-- a4&#45;&gt;a5 -->
<!-- o5 -->
<g id="node10" class="node">
<title>o5</title>
<path fill="#d7efdb" stroke="#2f7d3a" d="M608.34,-398.86C608.34,-398.86 407.67,-398.86 407.67,-398.86 401.67,-398.86 395.67,-392.86 395.67,-386.86 395.67,-386.86 395.67,-371.02 395.67,-371.02 395.67,-365.02 401.67,-359.02 407.67,-359.02 407.67,-359.02 608.34,-359.02 608.34,-359.02 614.34,-359.02 620.34,-365.02 620.34,-371.02 620.34,-371.02 620.34,-386.86 620.34,-386.86 620.34,-392.86 614.34,-398.86 608.34,-398.86"/>
<text xml:space="preserve" text-anchor="start" x="408.62" y="-381.44" font-family="Helvetica,sans-Serif" font-size="10.00">403 PERMISSION_DENIED</text>
<text xml:space="preserve" text-anchor="start" x="408.62" y="-369.44" font-family="Helvetica,sans-Serif" font-size="10.00">(PROVEN: live 403 against a throwaway DB)</text>
</g>
<!-- a5&#45;&gt;o5 -->
<g id="edge5" class="edge">
<title>a5&#45;&gt;o5</title>
<path fill="none" stroke="black" d="M216.35,-378.94C264.89,-378.94 328.57,-378.94 384.04,-378.94"/>
<polygon fill="black" stroke="black" points="383.87,-382.44 393.87,-378.94 383.87,-375.44 383.87,-382.44"/>
<text xml:space="preserve" text-anchor="start" x="232" y="-394.39" font-family="Helvetica,sans-Serif" font-size="9.00">IAM condition scopes datastore.user</text>
<text xml:space="preserve" text-anchor="start" x="232" y="-383.89" font-family="Helvetica,sans-Serif" font-size="9.00">to the vcl&#45;audit database only</text>
</g>
<!-- a6 -->
<g id="node11" class="node">
<title>a6</title>
<path fill="#fdf0d5" stroke="#b8860b" d="M196.96,-300.52C196.96,-300.52 81.04,-300.52 81.04,-300.52 75.04,-300.52 69.04,-294.52 69.04,-288.52 69.04,-288.52 69.04,-272.68 69.04,-272.68 69.04,-266.68 75.04,-260.68 81.04,-260.68 81.04,-260.68 196.96,-260.68 196.96,-260.68 202.96,-260.68 208.96,-266.68 208.96,-272.68 208.96,-272.68 208.96,-288.52 208.96,-288.52 208.96,-294.52 202.96,-300.52 196.96,-300.52"/>
<text xml:space="preserve" text-anchor="start" x="82" y="-283.1" font-family="Helvetica,sans-Serif" font-size="10.00">Open the walkthrough and</text>
<text xml:space="preserve" text-anchor="start" x="82" y="-271.1" font-family="Helvetica,sans-Serif" font-size="10.00">one&#45;click re&#45;certify</text>
</g>
<!-- a5&#45;&gt;a6 -->
<!-- o6 -->
<g id="node12" class="node">
<title>o6</title>
<path fill="#d7efdb" stroke="#2f7d3a" d="M583.46,-300.52C583.46,-300.52 314.54,-300.52 314.54,-300.52 308.54,-300.52 302.54,-294.52 302.54,-288.52 302.54,-288.52 302.54,-272.68 302.54,-272.68 302.54,-266.68 308.54,-260.68 314.54,-260.68 314.54,-260.68 583.46,-260.68 583.46,-260.68 589.46,-260.68 595.46,-266.68 595.46,-272.68 595.46,-272.68 595.46,-288.52 595.46,-288.52 595.46,-294.52 589.46,-300.52 583.46,-300.52"/>
<text xml:space="preserve" text-anchor="start" x="315.5" y="-283.1" font-family="Helvetica,sans-Serif" font-size="10.00">No seal command EXISTS in the substantive walkthrough —</text>
<text xml:space="preserve" text-anchor="start" x="315.5" y="-271.1" font-family="Helvetica,sans-Serif" font-size="10.00">the action is physically absent, not conditionally hidden</text>
</g>
<!-- a6&#45;&gt;o6 -->
<g id="edge6" class="edge">
<title>a6&#45;&gt;o6</title>
<path fill="none" stroke="black" d="M209.34,-280.6C233.79,-280.6 262.28,-280.6 290.92,-280.6"/>
<polygon fill="black" stroke="black" points="290.81,-284.1 300.81,-280.6 290.81,-277.1 290.81,-284.1"/>
<text xml:space="preserve" text-anchor="start" x="225" y="-296.05" font-family="Helvetica,sans-Serif" font-size="9.00">separate file,</text>
<text xml:space="preserve" text-anchor="start" x="225" y="-285.55" font-family="Helvetica,sans-Serif" font-size="9.00">by construction</text>
</g>
<!-- a7 -->
<g id="node13" class="node">
<title>a7</title>
<path fill="#fdf0d5" stroke="#b8860b" d="M202.96,-188.26C202.96,-188.26 75.04,-188.26 75.04,-188.26 69.04,-188.26 63.04,-182.26 63.04,-176.26 63.04,-176.26 63.04,-164.26 63.04,-164.26 63.04,-158.26 69.04,-152.26 75.04,-152.26 75.04,-152.26 202.96,-152.26 202.96,-152.26 208.96,-152.26 214.96,-158.26 214.96,-164.26 214.96,-164.26 214.96,-176.26 214.96,-176.26 214.96,-182.26 208.96,-188.26 202.96,-188.26"/>
<text xml:space="preserve" text-anchor="middle" x="139" y="-166.76" font-family="Helvetica,sans-Serif" font-size="10.00">Something fails or is missing</text>
</g>
<!-- a6&#45;&gt;a7 -->
<!-- o7 -->
<g id="node14" class="node">
<title>o7</title>
<path fill="#e7f6ea" stroke="#2f7d3a" d="M611.96,-202.18C611.96,-202.18 346.04,-202.18 346.04,-202.18 340.04,-202.18 334.04,-196.18 334.04,-190.18 334.04,-190.18 334.04,-150.34 334.04,-150.34 334.04,-144.34 340.04,-138.34 346.04,-138.34 346.04,-138.34 611.96,-138.34 611.96,-138.34 617.96,-138.34 623.96,-144.34 623.96,-150.34 623.96,-150.34 623.96,-190.18 623.96,-190.18 623.96,-196.18 617.96,-202.18 611.96,-202.18"/>
<text xml:space="preserve" text-anchor="start" x="347" y="-184.76" font-family="Helvetica,sans-Serif" font-size="10.00">• audit write fails → advice still prints, exit 0 (PROVEN)</text>
<text xml:space="preserve" text-anchor="start" x="347" y="-172.76" font-family="Helvetica,sans-Serif" font-size="10.00">• AI classification missing/unknown → alert defaults to the</text>
<text xml:space="preserve" text-anchor="start" x="347" y="-160.76" font-family="Helvetica,sans-Serif" font-size="10.00">  SUBSTANTIVE walkthrough (no seal command). Fail&#45;safe.</text>
<text xml:space="preserve" text-anchor="start" x="347" y="-148.76" font-family="Helvetica,sans-Serif" font-size="10.00">• current text ≠ drifted_hash → triage REFUSES (atomicity)</text>
</g>
<!-- a7&#45;&gt;o7 -->
<g id="edge7" class="edge">
<title>a7&#45;&gt;o7</title>
<path fill="none" stroke="black" d="M215.3,-170.26C246.97,-170.26 284.96,-170.26 322.1,-170.26"/>
<polygon fill="black" stroke="black" points="322.08,-173.76 332.08,-170.26 322.08,-166.76 322.08,-173.76"/>
<text xml:space="preserve" text-anchor="middle" x="274.5" y="-175.21" font-family="Helvetica,sans-Serif" font-size="9.00">fail&#45;safe, not fail&#45;open</text>
</g>
<!-- a8 -->
<g id="node15" class="node">
<title>a8</title>
<path fill="#fff3cd" stroke="#b8860b" d="M222.46,-65.92C222.46,-65.92 55.54,-65.92 55.54,-65.92 49.54,-65.92 43.54,-59.92 43.54,-53.92 43.54,-53.92 43.54,-41.92 43.54,-41.92 43.54,-35.92 49.54,-29.92 55.54,-29.92 55.54,-29.92 222.46,-29.92 222.46,-29.92 228.46,-29.92 234.46,-35.92 234.46,-41.92 234.46,-41.92 234.46,-53.92 234.46,-53.92 234.46,-59.92 228.46,-65.92 222.46,-65.92"/>
<text xml:space="preserve" text-anchor="middle" x="139" y="-44.42" font-family="Helvetica,sans-Serif" font-size="10.00">Principal WITH dataplex write access</text>
</g>
<!-- a7&#45;&gt;a8 -->
<!-- o8 -->
<g id="node16" class="node">
<title>o8</title>
<path fill="#fff3cd" stroke="#b8860b" d="M670.21,-79.84C670.21,-79.84 393.79,-79.84 393.79,-79.84 387.79,-79.84 381.79,-73.84 381.79,-67.84 381.79,-67.84 381.79,-28 381.79,-28 381.79,-22 387.79,-16 393.79,-16 393.79,-16 670.21,-16 670.21,-16 676.21,-16 682.21,-22 682.21,-28 682.21,-28 682.21,-67.84 682.21,-67.84 682.21,-73.84 676.21,-79.84 670.21,-79.84"/>
<text xml:space="preserve" text-anchor="start" x="394.75" y="-62.42" font-family="Helvetica,sans-Serif" font-size="10.00">Can edit the verification aspect directly in the console.</text>
<text xml:space="preserve" text-anchor="start" x="394.75" y="-50.42" font-family="Helvetica,sans-Serif" font-size="10.00">VCL constrains its OWN components structurally; it does NOT</text>
<text xml:space="preserve" text-anchor="start" x="394.75" y="-38.42" font-family="Helvetica,sans-Serif" font-size="10.00">replace catalog IAM. Mitigation = least&#45;privilege on the</text>
<text xml:space="preserve" text-anchor="start" x="394.75" y="-26.42" font-family="Helvetica,sans-Serif" font-size="10.00">aspect, not code.</text>
</g>
<!-- a8&#45;&gt;o8 -->
<g id="edge8" class="edge">
<title>a8&#45;&gt;o8</title>
<path fill="none" stroke="black" d="M234.89,-47.92C275.61,-47.92 324.23,-47.92 370.23,-47.92"/>
<polygon fill="black" stroke="black" points="370.03,-51.42 380.03,-47.92 370.03,-44.42 370.03,-51.42"/>
<text xml:space="preserve" text-anchor="middle" x="308.12" y="-52.87" font-family="Helvetica,sans-Serif" font-size="9.00">out of VCL&#39;s structural scope</text>
</g>
</g>
</svg>
