<?xml version="1.0" encoding="UTF-8" standalone="no"?>
<!DOCTYPE svg PUBLIC "-//W3C//DTD SVG 1.1//EN"
 "http://www.w3.org/Graphics/SVG/1.1/DTD/svg11.dtd">
<!-- Generated by graphviz version 14.1.2 (0)
 -->
<!-- Title: negative_flow Pages: 1 -->
<svg width="760pt" height="927pt"
 viewBox="0.00 0.00 760.00 927.00" xmlns="http://www.w3.org/2000/svg" xmlns:xlink="http://www.w3.org/1999/xlink">
<g id="graph0" class="graph" transform="scale(1 1) rotate(0) translate(28.8 898.02)">
<title>negative_flow</title>
<polygon fill="white" stroke="none" points="-28.8,28.8 -28.8,-898.02 730.8,-898.02 730.8,28.8 -28.8,28.8"/>
<text xml:space="preserve" text-anchor="middle" x="351" y="-849.07" font-family="Helvetica,sans-Serif" font-size="17.00">VCL — Negative&#45;Path / Threat&#45;Block Flow &#160;(every path is BLOCKED)</text>
<g id="clust1" class="cluster">
<title>cluster_1</title>
<path fill="none" stroke="#c0272d" d="M20,-756.38C20,-756.38 682,-756.38 682,-756.38 688,-756.38 694,-762.38 694,-768.38 694,-768.38 694,-821.72 694,-821.72 694,-827.72 688,-833.72 682,-833.72 682,-833.72 20,-833.72 20,-833.72 14,-833.72 8,-827.72 8,-821.72 8,-821.72 8,-768.38 8,-768.38 8,-762.38 14,-756.38 20,-756.38"/>
<text xml:space="preserve" text-anchor="middle" x="351" y="-819.27" font-family="Helvetica,sans-Serif" font-size="11.00">1 — Agent fabricates a schema after a withhold</text>
</g>
<g id="clust3" class="cluster">
<title>cluster_2</title>
<path fill="none" stroke="#c0272d" d="M41,-658.04C41,-658.04 638,-658.04 638,-658.04 644,-658.04 650,-664.04 650,-670.04 650,-670.04 650,-723.38 650,-723.38 650,-729.38 644,-735.38 638,-735.38 638,-735.38 41,-735.38 41,-735.38 35,-735.38 29,-729.38 29,-723.38 29,-723.38 29,-670.04 29,-670.04 29,-664.04 35,-658.04 41,-658.04"/>
<text xml:space="preserve" text-anchor="middle" x="339.5" y="-720.93" font-family="Helvetica,sans-Serif" font-size="11.00">2 — Agent targets PII directly, bypassing context</text>
</g>
<g id="clust5" class="cluster">
<title>cluster_3</title>
<path fill="none" stroke="#c0272d" d="M49,-559.7C49,-559.7 635,-559.7 635,-559.7 641,-559.7 647,-565.7 647,-571.7 647,-571.7 647,-625.04 647,-625.04 647,-631.04 641,-637.04 635,-637.04 635,-637.04 49,-637.04 49,-637.04 43,-637.04 37,-631.04 37,-625.04 37,-625.04 37,-571.7 37,-571.7 37,-565.7 43,-559.7 49,-559.7"/>
<text xml:space="preserve" text-anchor="middle" x="342" y="-622.59" font-family="Helvetica,sans-Serif" font-size="11.00">3 — Someone hand&#45;edits the DISPLAY aspect to RESOLVED</text>
</g>
<g id="clust7" class="cluster">
<title>cluster_4</title>
<path fill="none" stroke="#c0272d" d="M54,-461.36C54,-461.36 674,-461.36 674,-461.36 680,-461.36 686,-467.36 686,-473.36 686,-473.36 686,-526.7 686,-526.7 686,-532.7 680,-538.7 674,-538.7 674,-538.7 54,-538.7 54,-538.7 48,-538.7 42,-532.7 42,-526.7 42,-526.7 42,-473.36 42,-473.36 42,-467.36 48,-461.36 54,-461.36"/>
<text xml:space="preserve" text-anchor="middle" x="364" y="-524.25" font-family="Helvetica,sans-Serif" font-size="11.00">4 — LLM advice tries to influence the verdict</text>
</g>
<g id="clust9" class="cluster">
<title>cluster_5</title>
<path fill="none" stroke="#c0272d" d="M66,-363.02C66,-363.02 616,-363.02 616,-363.02 622,-363.02 628,-369.02 628,-375.02 628,-375.02 628,-428.36 628,-428.36 628,-434.36 622,-440.36 616,-440.36 616,-440.36 66,-440.36 66,-440.36 60,-440.36 54,-434.36 54,-428.36 54,-428.36 54,-375.02 54,-375.02 54,-369.02 60,-363.02 66,-363.02"/>
<text xml:space="preserve" text-anchor="middle" x="341" y="-425.91" font-family="Helvetica,sans-Serif" font-size="11.00">5 — Triage SA tries to write outside its store</text>
</g>
<g id="clust11" class="cluster">
<title>cluster_6</title>
<path fill="none" stroke="#c0272d" d="M73,-264.68C73,-264.68 591,-264.68 591,-264.68 597,-264.68 603,-270.68 603,-276.68 603,-276.68 603,-330.02 603,-330.02 603,-336.02 597,-342.02 591,-342.02 591,-342.02 73,-342.02 73,-342.02 67,-342.02 61,-336.02 61,-330.02 61,-330.02 61,-276.68 61,-276.68 61,-270.68 67,-264.68 73,-264.68"/>
<text xml:space="preserve" text-anchor="middle" x="332" y="-327.57" font-family="Helvetica,sans-Serif" font-size="11.00">6 — Substantive drift, steward wants one click</text>
</g>
<g id="clust13" class="cluster">
<title>cluster_7</title>
<path fill="none" stroke="#2f7d3a" d="M67,-130.34C67,-130.34 678,-130.34 678,-130.34 684,-130.34 690,-136.34 690,-142.34 690,-142.34 690,-231.68 690,-231.68 690,-237.68 684,-243.68 678,-243.68 678,-243.68 67,-243.68 67,-243.68 61,-243.68 55,-237.68 55,-231.68 55,-231.68 55,-142.34 55,-142.34 55,-136.34 61,-130.34 67,-130.34"/>
<text xml:space="preserve" text-anchor="middle" x="372.5" y="-229.23" font-family="Helvetica,sans-Serif" font-size="11.00">7 — Failure modes degrade SAFE, not open</text>
</g>
<g id="clust15" class="cluster">
<title>cluster_8</title>
<path fill="none" stroke="#b8860b" d="M48,-8C48,-8 678,-8 678,-8 684,-8 690,-14 690,-20 690,-20 690,-97.34 690,-97.34 690,-103.34 684,-109.34 678,-109.34 678,-109.34 48,-109.34 48,-109.34 42,-109.34 36,-103.34 36,-97.34 36,-97.34 36,-20 36,-20 36,-14 42,-8 48,-8"/>
<text xml:space="preserve" text-anchor="middle" x="363" y="-94.89" font-family="Helvetica,sans-Serif" font-size="11.00">KNOWN RESIDUAL — stated, not hidden</text>
</g>
<!-- a1 -->
<g id="node1" class="node">
<title>a1</title>
<path fill="#fdf0d5" stroke="#b8860b" d="M249.84,-804.22C249.84,-804.22 28.16,-804.22 28.16,-804.22 22.16,-804.22 16.16,-798.22 16.16,-792.22 16.16,-792.22 16.16,-776.38 16.16,-776.38 16.16,-770.38 22.16,-764.38 28.16,-764.38 28.16,-764.38 249.84,-764.38 249.84,-764.38 255.84,-764.38 261.84,-770.38 261.84,-776.38 261.84,-776.38 261.84,-792.22 261.84,-792.22 261.84,-798.22 255.84,-804.22 249.84,-804.22"/>
<text xml:space="preserve" text-anchor="start" x="29.12" y="-786.8" font-family="Helvetica,sans-Serif" font-size="10.00">Wrapper WITHHOLDS + &#39;do not infer or fabricate&#39;;</text>
<text xml:space="preserve" text-anchor="start" x="29.12" y="-774.8" font-family="Helvetica,sans-Serif" font-size="10.00">agent invents SQL anyway</text>
</g>
<!-- o1 -->
<g id="node2" class="node">
<title>o1</title>
<path fill="#d7efdb" stroke="#2f7d3a" d="M674.09,-804.22C674.09,-804.22 417.91,-804.22 417.91,-804.22 411.91,-804.22 405.91,-798.22 405.91,-792.22 405.91,-792.22 405.91,-776.38 405.91,-776.38 405.91,-770.38 411.91,-764.38 417.91,-764.38 417.91,-764.38 674.09,-764.38 674.09,-764.38 680.09,-764.38 686.09,-770.38 686.09,-776.38 686.09,-776.38 686.09,-792.22 686.09,-792.22 686.09,-798.22 680.09,-804.22 674.09,-804.22"/>
<text xml:space="preserve" text-anchor="start" x="418.88" y="-786.8" font-family="Helvetica,sans-Serif" font-size="10.00">REFUSED — enforcement is in the TOOL, not the prompt</text>
<text xml:space="preserve" text-anchor="start" x="418.88" y="-774.8" font-family="Helvetica,sans-Serif" font-size="10.00">(PROVEN: two&#45;run demo)</text>
</g>
<!-- a1&#45;&gt;o1 -->
<g id="edge1" class="edge">
<title>a1&#45;&gt;o1</title>
<path fill="none" stroke="black" d="M262.22,-784.3C303.87,-784.3 350.85,-784.3 394.44,-784.3"/>
<polygon fill="black" stroke="black" points="394.22,-787.8 404.22,-784.3 394.22,-780.8 394.22,-787.8"/>
<text xml:space="preserve" text-anchor="start" x="277.62" y="-799.75" font-family="Helvetica,sans-Serif" font-size="9.00">action tool reads the verdict</text>
<text xml:space="preserve" text-anchor="start" x="277.62" y="-789.25" font-family="Helvetica,sans-Serif" font-size="9.00">independently → unverified</text>
</g>
<!-- a2 -->
<g id="node3" class="node">
<title>a2</title>
<path fill="#fdf0d5" stroke="#b8860b" d="M228.83,-703.96C228.83,-703.96 49.17,-703.96 49.17,-703.96 43.17,-703.96 37.17,-697.96 37.17,-691.96 37.17,-691.96 37.17,-679.96 37.17,-679.96 37.17,-673.96 43.17,-667.96 49.17,-667.96 49.17,-667.96 228.83,-667.96 228.83,-667.96 234.83,-667.96 240.83,-673.96 240.83,-679.96 240.83,-679.96 240.83,-691.96 240.83,-691.96 240.83,-697.96 234.83,-703.96 228.83,-703.96"/>
<text xml:space="preserve" text-anchor="middle" x="139" y="-682.46" font-family="Helvetica,sans-Serif" font-size="10.00">Agent: SELECT email FROM customers</text>
</g>
<!-- a1&#45;&gt;a2 -->
<!-- o2 -->
<g id="node4" class="node">
<title>o2</title>
<path fill="#d7efdb" stroke="#2f7d3a" d="M630.46,-705.88C630.46,-705.88 373.54,-705.88 373.54,-705.88 367.54,-705.88 361.54,-699.88 361.54,-693.88 361.54,-693.88 361.54,-678.04 361.54,-678.04 361.54,-672.04 367.54,-666.04 373.54,-666.04 373.54,-666.04 630.46,-666.04 630.46,-666.04 636.46,-666.04 642.46,-672.04 642.46,-678.04 642.46,-678.04 642.46,-693.88 642.46,-693.88 642.46,-699.88 636.46,-705.88 630.46,-705.88"/>
<text xml:space="preserve" text-anchor="start" x="374.5" y="-688.46" font-family="Helvetica,sans-Serif" font-size="10.00">REFUSED — out of scope (only customers_safe + orders</text>
<text xml:space="preserve" text-anchor="start" x="374.5" y="-676.46" font-family="Helvetica,sans-Serif" font-size="10.00">reachable); a 3rd guard also rejects any email&#45;column SQL</text>
</g>
<!-- a2&#45;&gt;o2 -->
<g id="edge2" class="edge">
<title>a2&#45;&gt;o2</title>
<path fill="none" stroke="black" d="M241.08,-685.96C274.81,-685.96 313.11,-685.96 349.76,-685.96"/>
<polygon fill="black" stroke="black" points="349.56,-689.46 359.56,-685.96 349.56,-682.46 349.56,-689.46"/>
<text xml:space="preserve" text-anchor="start" x="256.56" y="-701.41" font-family="Helvetica,sans-Serif" font-size="9.00">tool scope check +</text>
<text xml:space="preserve" text-anchor="start" x="256.56" y="-690.91" font-family="Helvetica,sans-Serif" font-size="9.00">\bemail\b regex guard</text>
</g>
<!-- a3 -->
<g id="node5" class="node">
<title>a3</title>
<path fill="#fdf0d5" stroke="#b8860b" d="M220.96,-607.54C220.96,-607.54 57.04,-607.54 57.04,-607.54 51.04,-607.54 45.04,-601.54 45.04,-595.54 45.04,-595.54 45.04,-579.7 45.04,-579.7 45.04,-573.7 51.04,-567.7 57.04,-567.7 57.04,-567.7 220.96,-567.7 220.96,-567.7 226.96,-567.7 232.96,-573.7 232.96,-579.7 232.96,-579.7 232.96,-595.54 232.96,-595.54 232.96,-601.54 226.96,-607.54 220.96,-607.54"/>
<text xml:space="preserve" text-anchor="start" x="58" y="-590.12" font-family="Helvetica,sans-Serif" font-size="10.00">Governance Drift set to RESOLVED,</text>
<text xml:space="preserve" text-anchor="start" x="58" y="-578.12" font-family="Helvetica,sans-Serif" font-size="10.00">then agent calls lookup_context</text>
</g>
<!-- a2&#45;&gt;a3 -->
<!-- o3 -->
<g id="node6" class="node">
<title>o3</title>
<path fill="#d7efdb" stroke="#2f7d3a" d="M627.21,-605.62C627.21,-605.62 398.79,-605.62 398.79,-605.62 392.79,-605.62 386.79,-599.62 386.79,-593.62 386.79,-593.62 386.79,-581.62 386.79,-581.62 386.79,-575.62 392.79,-569.62 398.79,-569.62 398.79,-569.62 627.21,-569.62 627.21,-569.62 633.21,-569.62 639.21,-575.62 639.21,-581.62 639.21,-581.62 639.21,-593.62 639.21,-593.62 639.21,-599.62 633.21,-605.62 627.21,-605.62"/>
<text xml:space="preserve" text-anchor="middle" x="513" y="-584.12" font-family="Helvetica,sans-Serif" font-size="10.00">WITHHELD — display state cannot certify anything</text>
</g>
<!-- a3&#45;&gt;o3 -->
<g id="edge3" class="edge">
<title>a3&#45;&gt;o3</title>
<path fill="none" stroke="black" d="M233.38,-587.62C276.35,-587.62 328.05,-587.62 375.25,-587.62"/>
<polygon fill="black" stroke="black" points="374.99,-591.12 384.99,-587.62 374.99,-584.12 374.99,-591.12"/>
<text xml:space="preserve" text-anchor="start" x="248.75" y="-603.07" font-family="Helvetica,sans-Serif" font-size="9.00">gate reads the verification</text>
<text xml:space="preserve" text-anchor="start" x="248.75" y="-592.57" font-family="Helvetica,sans-Serif" font-size="9.00">aspect ONLY → still unverified</text>
</g>
<!-- a4 -->
<g id="node7" class="node">
<title>a4</title>
<path fill="#fdf0d5" stroke="#b8860b" d="M216.46,-507.28C216.46,-507.28 61.54,-507.28 61.54,-507.28 55.54,-507.28 49.54,-501.28 49.54,-495.28 49.54,-495.28 49.54,-483.28 49.54,-483.28 49.54,-477.28 55.54,-471.28 61.54,-471.28 61.54,-471.28 216.46,-471.28 216.46,-471.28 222.46,-471.28 228.46,-477.28 228.46,-483.28 228.46,-483.28 228.46,-495.28 228.46,-495.28 228.46,-501.28 222.46,-507.28 216.46,-507.28"/>
<text xml:space="preserve" text-anchor="middle" x="139" y="-485.78" font-family="Helvetica,sans-Serif" font-size="10.00">Triage wants to change source_tier</text>
</g>
<!-- a3&#45;&gt;a4 -->
<!-- o4 -->
<g id="node8" class="node">
<title>o4</title>
<path fill="#d7efdb" stroke="#2f7d3a" d="M665.96,-509.2C665.96,-509.2 454.04,-509.2 454.04,-509.2 448.04,-509.2 442.04,-503.2 442.04,-497.2 442.04,-497.2 442.04,-481.36 442.04,-481.36 442.04,-475.36 448.04,-469.36 454.04,-469.36 454.04,-469.36 665.96,-469.36 665.96,-469.36 671.96,-469.36 677.96,-475.36 677.96,-481.36 677.96,-481.36 677.96,-497.2 677.96,-497.2 677.96,-503.2 671.96,-509.2 665.96,-509.2"/>
<text xml:space="preserve" text-anchor="start" x="455" y="-491.78" font-family="Helvetica,sans-Serif" font-size="10.00">advice cannot reach the gate</text>
<text xml:space="preserve" text-anchor="start" x="455" y="-479.78" font-family="Helvetica,sans-Serif" font-size="10.00">(BY GRANT: wrapper SA has no datastore.user)</text>
</g>
<!-- a4&#45;&gt;o4 -->
<g id="edge4" class="edge">
<title>a4&#45;&gt;o4</title>
<path fill="none" stroke="black" d="M228.8,-489.28C287.47,-489.28 365.03,-489.28 430.35,-489.28"/>
<polygon fill="black" stroke="black" points="430.04,-492.78 440.04,-489.28 430.04,-485.78 430.04,-492.78"/>
<text xml:space="preserve" text-anchor="start" x="244.12" y="-504.73" font-family="Helvetica,sans-Serif" font-size="9.00">triage is a separate file + SA; never calls</text>
<text xml:space="preserve" text-anchor="start" x="244.12" y="-494.23" font-family="Helvetica,sans-Serif" font-size="9.00">seal/enforce; writes ADVICE to Firestore only</text>
</g>
<!-- a5 -->
<g id="node9" class="node">
<title>a5</title>
<path fill="#fdf0d5" stroke="#b8860b" d="M204.08,-410.86C204.08,-410.86 73.92,-410.86 73.92,-410.86 67.92,-410.86 61.92,-404.86 61.92,-398.86 61.92,-398.86 61.92,-383.02 61.92,-383.02 61.92,-377.02 67.92,-371.02 73.92,-371.02 73.92,-371.02 204.08,-371.02 204.08,-371.02 210.08,-371.02 216.08,-377.02 216.08,-383.02 216.08,-383.02 216.08,-398.86 216.08,-398.86 216.08,-404.86 210.08,-410.86 204.08,-410.86"/>
<text xml:space="preserve" text-anchor="start" x="74.88" y="-393.44" font-family="Helvetica,sans-Serif" font-size="10.00">Triage SA: write to a different</text>
<text xml:space="preserve" text-anchor="start" x="74.88" y="-381.44" font-family="Helvetica,sans-Serif" font-size="10.00">Firestore database</text>
</g>
<!-- a4&#45;&gt;a5 -->
<!-- o5 -->
<g id="node10" class="node">
<title>o5</title>
<path fill="#d7efdb" stroke="#2f7d3a" d="M608.34,-410.86C608.34,-410.86 407.67,-410.86 407.67,-410.86 401.67,-410.86 395.67,-404.86 395.67,-398.86 395.67,-398.86 395.67,-383.02 395.67,-383.02 395.67,-377.02 401.67,-371.02 407.67,-371.02 407.67,-371.02 608.34,-371.02 608.34,-371.02 614.34,-371.02 620.34,-377.02 620.34,-383.02 620.34,-383.02 620.34,-398.86 620.34,-398.86 620.34,-404.86 614.34,-410.86 608.34,-410.86"/>
<text xml:space="preserve" text-anchor="start" x="408.62" y="-393.44" font-family="Helvetica,sans-Serif" font-size="10.00">403 PERMISSION_DENIED</text>
<text xml:space="preserve" text-anchor="start" x="408.62" y="-381.44" font-family="Helvetica,sans-Serif" font-size="10.00">(PROVEN: live 403 against a throwaway DB)</text>
</g>
<!-- a5&#45;&gt;o5 -->
<g id="edge5" class="edge">
<title>a5&#45;&gt;o5</title>
<path fill="none" stroke="black" d="M216.35,-390.94C264.89,-390.94 328.57,-390.94 384.04,-390.94"/>
<polygon fill="black" stroke="black" points="383.87,-394.44 393.87,-390.94 383.87,-387.44 383.87,-394.44"/>
<text xml:space="preserve" text-anchor="start" x="232" y="-406.39" font-family="Helvetica,sans-Serif" font-size="9.00">IAM condition scopes datastore.user</text>
<text xml:space="preserve" text-anchor="start" x="232" y="-395.89" font-family="Helvetica,sans-Serif" font-size="9.00">to the vcl&#45;audit database only</text>
</g>
<!-- a6 -->
<g id="node11" class="node">
<title>a6</title>
<path fill="#fdf0d5" stroke="#b8860b" d="M196.96,-312.52C196.96,-312.52 81.04,-312.52 81.04,-312.52 75.04,-312.52 69.04,-306.52 69.04,-300.52 69.04,-300.52 69.04,-284.68 69.04,-284.68 69.04,-278.68 75.04,-272.68 81.04,-272.68 81.04,-272.68 196.96,-272.68 196.96,-272.68 202.96,-272.68 208.96,-278.68 208.96,-284.68 208.96,-284.68 208.96,-300.52 208.96,-300.52 208.96,-306.52 202.96,-312.52 196.96,-312.52"/>
<text xml:space="preserve" text-anchor="start" x="82" y="-295.1" font-family="Helvetica,sans-Serif" font-size="10.00">Open the walkthrough and</text>
<text xml:space="preserve" text-anchor="start" x="82" y="-283.1" font-family="Helvetica,sans-Serif" font-size="10.00">one&#45;click re&#45;certify</text>
</g>
<!-- a5&#45;&gt;a6 -->
<!-- o6 -->
<g id="node12" class="node">
<title>o6</title>
<path fill="#d7efdb" stroke="#2f7d3a" d="M583.46,-312.52C583.46,-312.52 314.54,-312.52 314.54,-312.52 308.54,-312.52 302.54,-306.52 302.54,-300.52 302.54,-300.52 302.54,-284.68 302.54,-284.68 302.54,-278.68 308.54,-272.68 314.54,-272.68 314.54,-272.68 583.46,-272.68 583.46,-272.68 589.46,-272.68 595.46,-278.68 595.46,-284.68 595.46,-284.68 595.46,-300.52 595.46,-300.52 595.46,-306.52 589.46,-312.52 583.46,-312.52"/>
<text xml:space="preserve" text-anchor="start" x="315.5" y="-295.1" font-family="Helvetica,sans-Serif" font-size="10.00">No seal command EXISTS in the substantive walkthrough —</text>
<text xml:space="preserve" text-anchor="start" x="315.5" y="-283.1" font-family="Helvetica,sans-Serif" font-size="10.00">the action is physically absent, not conditionally hidden</text>
</g>
<!-- a6&#45;&gt;o6 -->
<g id="edge6" class="edge">
<title>a6&#45;&gt;o6</title>
<path fill="none" stroke="black" d="M209.34,-292.6C233.79,-292.6 262.28,-292.6 290.92,-292.6"/>
<polygon fill="black" stroke="black" points="290.81,-296.1 300.81,-292.6 290.81,-289.1 290.81,-296.1"/>
<text xml:space="preserve" text-anchor="start" x="225" y="-308.05" font-family="Helvetica,sans-Serif" font-size="9.00">separate file,</text>
<text xml:space="preserve" text-anchor="start" x="225" y="-297.55" font-family="Helvetica,sans-Serif" font-size="9.00">by construction</text>
</g>
<!-- a7 -->
<g id="node13" class="node">
<title>a7</title>
<path fill="#fdf0d5" stroke="#b8860b" d="M202.96,-194.26C202.96,-194.26 75.04,-194.26 75.04,-194.26 69.04,-194.26 63.04,-188.26 63.04,-182.26 63.04,-182.26 63.04,-170.26 63.04,-170.26 63.04,-164.26 69.04,-158.26 75.04,-158.26 75.04,-158.26 202.96,-158.26 202.96,-158.26 208.96,-158.26 214.96,-164.26 214.96,-170.26 214.96,-170.26 214.96,-182.26 214.96,-182.26 214.96,-188.26 208.96,-194.26 202.96,-194.26"/>
<text xml:space="preserve" text-anchor="middle" x="139" y="-172.76" font-family="Helvetica,sans-Serif" font-size="10.00">Something fails or is missing</text>
</g>
<!-- a6&#45;&gt;a7 -->
<!-- o7 -->
<g id="node14" class="node">
<title>o7</title>
<path fill="#e7f6ea" stroke="#2f7d3a" d="M669.84,-214.18C669.84,-214.18 346.16,-214.18 346.16,-214.18 340.16,-214.18 334.16,-208.18 334.16,-202.18 334.16,-202.18 334.16,-150.34 334.16,-150.34 334.16,-144.34 340.16,-138.34 346.16,-138.34 346.16,-138.34 669.84,-138.34 669.84,-138.34 675.84,-138.34 681.84,-144.34 681.84,-150.34 681.84,-150.34 681.84,-202.18 681.84,-202.18 681.84,-208.18 675.84,-214.18 669.84,-214.18"/>
<text xml:space="preserve" text-anchor="start" x="347.12" y="-196.76" font-family="Helvetica,sans-Serif" font-size="10.00">• audit write fails → advice still prints, exit 0 (PROVEN)</text>
<text xml:space="preserve" text-anchor="start" x="347.12" y="-184.76" font-family="Helvetica,sans-Serif" font-size="10.00">• EVERY alert lands on the no&#45;seal walkthrough (substantive) by default;</text>
<text xml:space="preserve" text-anchor="start" x="347.12" y="-172.76" font-family="Helvetica,sans-Serif" font-size="10.00">  the re&#45;cert command is reachable ONLY via an onward link, after the</text>
<text xml:space="preserve" text-anchor="start" x="347.12" y="-160.76" font-family="Helvetica,sans-Serif" font-size="10.00">  steward reads the classification — fail&#45;safe by ROUTING, not a warning</text>
<text xml:space="preserve" text-anchor="start" x="347.12" y="-148.76" font-family="Helvetica,sans-Serif" font-size="10.00">• current text ≠ drifted_hash → triage REFUSES (atomicity)</text>
</g>
<!-- a7&#45;&gt;o7 -->
<g id="edge7" class="edge">
<title>a7&#45;&gt;o7</title>
<path fill="none" stroke="black" d="M215.46,-176.26C246.87,-176.26 284.74,-176.26 322.65,-176.26"/>
<polygon fill="black" stroke="black" points="322.36,-179.76 332.36,-176.26 322.36,-172.76 322.36,-179.76"/>
<text xml:space="preserve" text-anchor="middle" x="274.56" y="-181.21" font-family="Helvetica,sans-Serif" font-size="9.00">fail&#45;safe, not fail&#45;open</text>
</g>
<!-- a8 -->
<g id="node15" class="node">
<title>a8</title>
<path fill="#fff3cd" stroke="#b8860b" d="M222.46,-65.92C222.46,-65.92 55.54,-65.92 55.54,-65.92 49.54,-65.92 43.54,-59.92 43.54,-53.92 43.54,-53.92 43.54,-41.92 43.54,-41.92 43.54,-35.92 49.54,-29.92 55.54,-29.92 55.54,-29.92 222.46,-29.92 222.46,-29.92 228.46,-29.92 234.46,-35.92 234.46,-41.92 234.46,-41.92 234.46,-53.92 234.46,-53.92 234.46,-59.92 228.46,-65.92 222.46,-65.92"/>
<text xml:space="preserve" text-anchor="middle" x="139" y="-44.42" font-family="Helvetica,sans-Serif" font-size="10.00">Principal WITH dataplex write access</text>
</g>
<!-- a7&#45;&gt;a8 -->
<!-- o8 -->
<g id="node16" class="node">
<title>o8</title>
<path fill="#fff3cd" stroke="#b8860b" d="M670.21,-79.84C670.21,-79.84 393.79,-79.84 393.79,-79.84 387.79,-79.84 381.79,-73.84 381.79,-67.84 381.79,-67.84 381.79,-28 381.79,-28 381.79,-22 387.79,-16 393.79,-16 393.79,-16 670.21,-16 670.21,-16 676.21,-16 682.21,-22 682.21,-28 682.21,-28 682.21,-67.84 682.21,-67.84 682.21,-73.84 676.21,-79.84 670.21,-79.84"/>
<text xml:space="preserve" text-anchor="start" x="394.75" y="-62.42" font-family="Helvetica,sans-Serif" font-size="10.00">Can edit the verification aspect directly in the console.</text>
<text xml:space="preserve" text-anchor="start" x="394.75" y="-50.42" font-family="Helvetica,sans-Serif" font-size="10.00">VCL constrains its OWN components structurally; it does NOT</text>
<text xml:space="preserve" text-anchor="start" x="394.75" y="-38.42" font-family="Helvetica,sans-Serif" font-size="10.00">replace catalog IAM. Mitigation = least&#45;privilege on the</text>
<text xml:space="preserve" text-anchor="start" x="394.75" y="-26.42" font-family="Helvetica,sans-Serif" font-size="10.00">aspect, not code.</text>
</g>
<!-- a8&#45;&gt;o8 -->
<g id="edge8" class="edge">
<title>a8&#45;&gt;o8</title>
<path fill="none" stroke="black" d="M234.89,-47.92C275.61,-47.92 324.23,-47.92 370.23,-47.92"/>
<polygon fill="black" stroke="black" points="370.03,-51.42 380.03,-47.92 370.03,-44.42 370.03,-51.42"/>
<text xml:space="preserve" text-anchor="middle" x="308.12" y="-52.87" font-family="Helvetica,sans-Serif" font-size="9.00">out of VCL&#39;s structural scope</text>
</g>
</g>
</svg>
