<?xml version="1.0" encoding="UTF-8" standalone="no"?>
<!DOCTYPE svg PUBLIC "-//W3C//DTD SVG 1.1//EN"
 "http://www.w3.org/Graphics/SVG/1.1/DTD/svg11.dtd">
<!-- Generated by graphviz version 14.1.2 (0)
 -->
<!-- Title: repo_cloud_mapping Pages: 1 -->
<svg width="1188pt" height="1922pt"
 viewBox="0.00 0.00 1188.00 1922.00" xmlns="http://www.w3.org/2000/svg" xmlns:xlink="http://www.w3.org/1999/xlink">
<g id="graph0" class="graph" transform="scale(1 1) rotate(0) translate(25.2 1897.2)">
<title>repo_cloud_mapping</title>
<polygon fill="white" stroke="none" points="-25.2,25.2 -25.2,-1897.2 1162.32,-1897.2 1162.32,25.2 -25.2,25.2"/>
<text xml:space="preserve" text-anchor="middle" x="568.56" y="-1851.85" font-family="Helvetica,sans-Serif" font-size="17.00">VCL — Repository ↔ Cloud Architecture Mapping</text>
<g id="clust1" class="cluster">
<title>cluster_repo</title>
<path fill="#eef2ff" stroke="#3355aa" d="M20,-1187.5C20,-1187.5 596.83,-1187.5 596.83,-1187.5 602.83,-1187.5 608.83,-1193.5 608.83,-1199.5 608.83,-1199.5 608.83,-1824.5 608.83,-1824.5 608.83,-1830.5 602.83,-1836.5 596.83,-1836.5 596.83,-1836.5 20,-1836.5 20,-1836.5 14,-1836.5 8,-1830.5 8,-1824.5 8,-1824.5 8,-1199.5 8,-1199.5 8,-1193.5 14,-1187.5 20,-1187.5"/>
<text xml:space="preserve" text-anchor="middle" x="308.41" y="-1819.2" font-family="Helvetica,sans-Serif" font-size="14.00">Repository (directories)</text>
</g>
<g id="clust2" class="cluster">
<title>cluster_cloud</title>
<path fill="#eefaf0" stroke="#2f7d3a" d="M466.04,-101.5C466.04,-101.5 1117.12,-101.5 1117.12,-101.5 1123.12,-101.5 1129.12,-107.5 1129.12,-113.5 1129.12,-113.5 1129.12,-1167.5 1129.12,-1167.5 1129.12,-1173.5 1123.12,-1179.5 1117.12,-1179.5 1117.12,-1179.5 466.04,-1179.5 466.04,-1179.5 460.04,-1179.5 454.04,-1173.5 454.04,-1167.5 454.04,-1167.5 454.04,-113.5 454.04,-113.5 454.04,-107.5 460.04,-101.5 466.04,-101.5"/>
<text xml:space="preserve" text-anchor="middle" x="791.58" y="-1162.2" font-family="Helvetica,sans-Serif" font-size="14.00">Google Cloud (us&#45;central1 unless noted)</text>
</g>
<!-- r_infra -->
<g id="node1" class="node">
<title>r_infra</title>
<path fill="#dbe4ff" stroke="#3355aa" d="M114.64,-1717.5C114.64,-1717.5 84.64,-1717.5 84.64,-1717.5 78.64,-1717.5 72.64,-1711.5 72.64,-1705.5 72.64,-1705.5 72.64,-1693.5 72.64,-1693.5 72.64,-1687.5 78.64,-1681.5 84.64,-1681.5 84.64,-1681.5 114.64,-1681.5 114.64,-1681.5 120.64,-1681.5 126.64,-1687.5 126.64,-1693.5 126.64,-1693.5 126.64,-1705.5 126.64,-1705.5 126.64,-1711.5 120.64,-1717.5 114.64,-1717.5"/>
<text xml:space="preserve" text-anchor="middle" x="99.64" y="-1695.8" font-family="Helvetica,sans-Serif" font-size="11.00">infra/</text>
</g>
<!-- c_mon -->
<g id="node20" class="node">
<title>c_mon</title>
<path fill="#dcf3e2" stroke="#2f7d3a" d="M629.58,-1056.48C629.58,-1056.48 491.79,-1056.48 491.79,-1056.48 485.79,-1056.48 479.79,-1050.48 479.79,-1044.48 479.79,-1044.48 479.79,-1028.52 479.79,-1028.52 479.79,-1022.52 485.79,-1016.52 491.79,-1016.52 491.79,-1016.52 629.58,-1016.52 629.58,-1016.52 635.58,-1016.52 641.58,-1022.52 641.58,-1028.52 641.58,-1028.52 641.58,-1044.48 641.58,-1044.48 641.58,-1050.48 635.58,-1056.48 629.58,-1056.48"/>
<text xml:space="preserve" text-anchor="start" x="491.31" y="-1039.55" font-family="Helvetica,sans-Serif" font-size="11.00">Monitoring: policy + channels</text>
<text xml:space="preserve" text-anchor="start" x="491.31" y="-1026.05" font-family="Helvetica,sans-Serif" font-size="11.00">(global)</text>
</g>
<!-- r_infra&#45;&gt;c_mon -->
<g id="edge15" class="edge">
<title>r_infra&#45;&gt;c_mon</title>
<path fill="none" stroke="#333333" stroke-dasharray="5,2" d="M126.96,-1687.76C197.06,-1656.48 383.04,-1573.5 383.04,-1573.5 383.04,-1573.5 454.04,-1078.5 454.04,-1078.5 454.04,-1078.5 474.69,-1070.29 497.72,-1061.13"/>
<polygon fill="#333333" stroke="#333333" points="499,-1064.39 507,-1057.44 496.42,-1057.89 499,-1064.39"/>
<text xml:space="preserve" text-anchor="middle" x="322.66" y="-1627.16" font-family="Helvetica,sans-Serif" font-size="9.00" fill="#333333">gcloud</text>
</g>
<!-- c_sm -->
<g id="node22" class="node">
<title>c_sm</title>
<path fill="#dcf3e2" stroke="#2f7d3a" d="M632.58,-973.48C632.58,-973.48 488.79,-973.48 488.79,-973.48 482.79,-973.48 476.79,-967.48 476.79,-961.48 476.79,-961.48 476.79,-945.52 476.79,-945.52 476.79,-939.52 482.79,-933.52 488.79,-933.52 488.79,-933.52 632.58,-933.52 632.58,-933.52 638.58,-933.52 644.58,-939.52 644.58,-945.52 644.58,-945.52 644.58,-961.48 644.58,-961.48 644.58,-967.48 638.58,-973.48 632.58,-973.48"/>
<text xml:space="preserve" text-anchor="start" x="488.31" y="-956.55" font-family="Helvetica,sans-Serif" font-size="11.00">Secret Manager: slack secrets</text>
<text xml:space="preserve" text-anchor="start" x="488.31" y="-943.05" font-family="Helvetica,sans-Serif" font-size="11.00">(multi&#45;region)</text>
</g>
<!-- r_infra&#45;&gt;c_sm -->
<g id="edge16" class="edge">
<title>r_infra&#45;&gt;c_sm</title>
<path fill="none" stroke="#333333" stroke-dasharray="5,2" d="M126.75,-1685.51C148.28,-1673.98 175.29,-1659.5 175.29,-1659.5 175.29,-1659.5 262.29,-1553 262.29,-1553 262.29,-1553 383.04,-1425.5 383.04,-1425.5 383.04,-1425.5 454.04,-995.5 454.04,-995.5 454.04,-995.5 474.69,-987.29 497.72,-978.13"/>
<polygon fill="#333333" stroke="#333333" points="499,-981.39 507,-974.44 496.42,-974.89 499,-981.39"/>
<text xml:space="preserve" text-anchor="middle" x="322.66" y="-1554.95" font-family="Helvetica,sans-Serif" font-size="9.00" fill="#333333">gcloud ad&#45;hoc</text>
</g>
<!-- r_src -->
<g id="node2" class="node">
<title>r_src</title>
<path fill="#dbe4ff" stroke="#3355aa" d="M155.04,-1638.48C155.04,-1638.48 44.25,-1638.48 44.25,-1638.48 38.25,-1638.48 32.25,-1632.48 32.25,-1626.48 32.25,-1626.48 32.25,-1610.52 32.25,-1610.52 32.25,-1604.52 38.25,-1598.52 44.25,-1598.52 44.25,-1598.52 155.04,-1598.52 155.04,-1598.52 161.04,-1598.52 167.04,-1604.52 167.04,-1610.52 167.04,-1610.52 167.04,-1626.48 167.04,-1626.48 167.04,-1632.48 161.04,-1638.48 155.04,-1638.48"/>
<text xml:space="preserve" text-anchor="start" x="43.77" y="-1621.55" font-family="Helvetica,sans-Serif" font-size="11.00">src/</text>
<text xml:space="preserve" text-anchor="start" x="43.77" y="-1608.05" font-family="Helvetica,sans-Serif" font-size="11.00">vcl.py · wrapper · triage</text>
</g>
<!-- c_dpc -->
<g id="node14" class="node">
<title>c_dpc</title>
<path fill="#dcf3e2" stroke="#2f7d3a" d="M1101.12,-168.48C1101.12,-168.48 958.08,-168.48 958.08,-168.48 952.08,-168.48 946.08,-162.48 946.08,-156.48 946.08,-156.48 946.08,-140.52 946.08,-140.52 946.08,-134.52 952.08,-128.52 958.08,-128.52 958.08,-128.52 1101.12,-128.52 1101.12,-128.52 1107.12,-128.52 1113.12,-134.52 1113.12,-140.52 1113.12,-140.52 1113.12,-156.48 1113.12,-156.48 1113.12,-162.48 1107.12,-168.48 1101.12,-168.48"/>
<text xml:space="preserve" text-anchor="start" x="957.6" y="-151.55" font-family="Helvetica,sans-Serif" font-size="11.00">DP entry + aspect CONTENT</text>
<text xml:space="preserve" text-anchor="start" x="957.6" y="-138.05" font-family="Helvetica,sans-Serif" font-size="11.00">verdict · overview · drift</text>
</g>
<!-- r_src&#45;&gt;c_dpc -->
<g id="edge17" class="edge">
<title>r_src&#45;&gt;c_dpc</title>
<path fill="none" stroke="#2b6cb0" stroke-dasharray="5,2" d="M137.53,-1598.24C156.34,-1587.91 175.29,-1577.5 175.29,-1577.5 175.29,-1577.5 262.29,-919.5 262.29,-919.5 262.29,-919.5 383.04,-867.5 383.04,-867.5 383.04,-867.5 454.04,-86 454.04,-86 454.04,-86 651.33,-86 651.33,-86 651.33,-86 822.77,-114.4 934.51,-132.91"/>
<polygon fill="#2b6cb0" stroke="#2b6cb0" points="933.88,-136.36 944.31,-134.54 935.02,-129.45 933.88,-136.36"/>
<text xml:space="preserve" text-anchor="middle" x="560.68" y="-87.95" font-family="Helvetica,sans-Serif" font-size="9.00" fill="#2b6cb0">runtime: seal writes verdict</text>
</g>
<!-- c_run -->
<g id="node17" class="node">
<title>c_run</title>
<path fill="#dcf3e2" stroke="#2f7d3a" d="M617.2,-649.5C617.2,-649.5 504.16,-649.5 504.16,-649.5 498.16,-649.5 492.16,-643.5 492.16,-637.5 492.16,-637.5 492.16,-625.5 492.16,-625.5 492.16,-619.5 498.16,-613.5 504.16,-613.5 504.16,-613.5 617.2,-613.5 617.2,-613.5 623.2,-613.5 629.2,-619.5 629.2,-625.5 629.2,-625.5 629.2,-637.5 629.2,-637.5 629.2,-643.5 623.2,-649.5 617.2,-649.5"/>
<text xml:space="preserve" text-anchor="middle" x="560.68" y="-627.8" font-family="Helvetica,sans-Serif" font-size="11.00">Cloud Run: vcl&#45;wrapper</text>
</g>
<!-- r_src&#45;&gt;c_run -->
<g id="edge21" class="edge">
<title>r_src&#45;&gt;c_run</title>
<path fill="none" stroke="#2b6cb0" stroke-dasharray="5,2" d="M137.53,-1598.24C156.34,-1587.91 175.29,-1577.5 175.29,-1577.5 175.29,-1577.5 262.29,-1002 262.29,-1002 262.29,-1002 383.04,-925.5 383.04,-925.5 383.04,-925.5 454.04,-671.5 454.04,-671.5 454.04,-671.5 476.17,-663.12 500.17,-654.03"/>
<polygon fill="#2b6cb0" stroke="#2b6cb0" points="501.35,-657.33 509.47,-650.51 498.88,-650.78 501.35,-657.33"/>
<text xml:space="preserve" text-anchor="middle" x="322.66" y="-1003.95" font-family="Helvetica,sans-Serif" font-size="9.00" fill="#2b6cb0">deployed on</text>
</g>
<!-- c_fs -->
<g id="node18" class="node">
<title>c_fs</title>
<path fill="#dcf3e2" stroke="#2f7d3a" d="M604.45,-728.5C604.45,-728.5 516.91,-728.5 516.91,-728.5 510.91,-728.5 504.91,-722.5 504.91,-716.5 504.91,-716.5 504.91,-704.5 504.91,-704.5 504.91,-698.5 510.91,-692.5 516.91,-692.5 516.91,-692.5 604.45,-692.5 604.45,-692.5 610.45,-692.5 616.45,-698.5 616.45,-704.5 616.45,-704.5 616.45,-716.5 616.45,-716.5 616.45,-722.5 610.45,-728.5 604.45,-728.5"/>
<text xml:space="preserve" text-anchor="middle" x="560.68" y="-706.8" font-family="Helvetica,sans-Serif" font-size="11.00">Firestore: vcl&#45;audit</text>
</g>
<!-- r_src&#45;&gt;c_fs -->
<g id="edge19" class="edge">
<title>r_src&#45;&gt;c_fs</title>
<path fill="none" stroke="#2b6cb0" stroke-dasharray="5,2" d="M137.53,-1598.24C156.34,-1587.91 175.29,-1577.5 175.29,-1577.5 175.29,-1577.5 262.29,-1080 262.29,-1080 262.29,-1080 383.04,-1022.5 383.04,-1022.5 383.04,-1022.5 454.04,-750.5 454.04,-750.5 454.04,-750.5 476.17,-742.12 500.17,-733.03"/>
<polygon fill="#2b6cb0" stroke="#2b6cb0" points="501.35,-736.33 509.47,-729.51 498.88,-729.78 501.35,-736.33"/>
<text xml:space="preserve" text-anchor="middle" x="322.66" y="-1081.95" font-family="Helvetica,sans-Serif" font-size="9.00" fill="#2b6cb0">runtime: triage write</text>
</g>
<!-- c_log -->
<g id="node21" class="node">
<title>c_log</title>
<path fill="#dcf3e2" stroke="#2f7d3a" d="M626.58,-811.48C626.58,-811.48 494.79,-811.48 494.79,-811.48 488.79,-811.48 482.79,-805.48 482.79,-799.48 482.79,-799.48 482.79,-783.52 482.79,-783.52 482.79,-777.52 488.79,-771.52 494.79,-771.52 494.79,-771.52 626.58,-771.52 626.58,-771.52 632.58,-771.52 638.58,-777.52 638.58,-783.52 638.58,-783.52 638.58,-799.48 638.58,-799.48 638.58,-805.48 632.58,-811.48 626.58,-811.48"/>
<text xml:space="preserve" text-anchor="start" x="494.31" y="-794.55" font-family="Helvetica,sans-Serif" font-size="11.00">Cloud Logging: logs/vcl&#45;drift</text>
<text xml:space="preserve" text-anchor="start" x="494.31" y="-781.05" font-family="Helvetica,sans-Serif" font-size="11.00">(global)</text>
</g>
<!-- r_src&#45;&gt;c_log -->
<g id="edge18" class="edge">
<title>r_src&#45;&gt;c_log</title>
<path fill="none" stroke="#2b6cb0" stroke-dasharray="5,2" d="M137.53,-1598.24C156.34,-1587.91 175.29,-1577.5 175.29,-1577.5 175.29,-1577.5 262.29,-1148 262.29,-1148 262.29,-1148 383.04,-1100.5 383.04,-1100.5 383.04,-1100.5 454.04,-833.5 454.04,-833.5 454.04,-833.5 474.69,-825.29 497.72,-816.13"/>
<polygon fill="#2b6cb0" stroke="#2b6cb0" points="499,-819.39 507,-812.44 496.42,-812.89 499,-819.39"/>
<text xml:space="preserve" text-anchor="middle" x="322.66" y="-1149.95" font-family="Helvetica,sans-Serif" font-size="9.00" fill="#2b6cb0">runtime: logging write</text>
</g>
<!-- c_vertex -->
<g id="node23" class="node">
<title>c_vertex</title>
<path fill="#dcf3e2" stroke="#2f7d3a" d="M623.2,-890.5C623.2,-890.5 498.16,-890.5 498.16,-890.5 492.16,-890.5 486.16,-884.5 486.16,-878.5 486.16,-878.5 486.16,-866.5 486.16,-866.5 486.16,-860.5 492.16,-854.5 498.16,-854.5 498.16,-854.5 623.2,-854.5 623.2,-854.5 629.2,-854.5 635.2,-860.5 635.2,-866.5 635.2,-866.5 635.2,-878.5 635.2,-878.5 635.2,-884.5 629.2,-890.5 623.2,-890.5"/>
<text xml:space="preserve" text-anchor="middle" x="560.68" y="-868.8" font-family="Helvetica,sans-Serif" font-size="11.00">Vertex AI: gemini&#45;2.5&#45;flash</text>
</g>
<!-- r_src&#45;&gt;c_vertex -->
<g id="edge20" class="edge">
<title>r_src&#45;&gt;c_vertex</title>
<path fill="none" stroke="#2b6cb0" stroke-dasharray="5,2" d="M137.53,-1598.24C156.34,-1587.91 175.29,-1577.5 175.29,-1577.5 175.29,-1577.5 262.29,-1405 262.29,-1405 262.29,-1405 383.04,-1188.5 383.04,-1188.5 383.04,-1188.5 454.04,-912.5 454.04,-912.5 454.04,-912.5 476.17,-904.12 500.17,-895.03"/>
<polygon fill="#2b6cb0" stroke="#2b6cb0" points="501.35,-898.33 509.47,-891.51 498.88,-891.78 501.35,-898.33"/>
<text xml:space="preserve" text-anchor="middle" x="322.66" y="-1406.95" font-family="Helvetica,sans-Serif" font-size="9.00" fill="#2b6cb0">runtime: triage call</text>
</g>
<!-- r_demo -->
<g id="node3" class="node">
<title>r_demo</title>
<path fill="#dbe4ff" stroke="#3355aa" d="M148.29,-1476.5C148.29,-1476.5 51,-1476.5 51,-1476.5 45,-1476.5 39,-1470.5 39,-1464.5 39,-1464.5 39,-1452.5 39,-1452.5 39,-1446.5 45,-1440.5 51,-1440.5 51,-1440.5 148.29,-1440.5 148.29,-1440.5 154.29,-1440.5 160.29,-1446.5 160.29,-1452.5 160.29,-1452.5 160.29,-1464.5 160.29,-1464.5 160.29,-1470.5 154.29,-1476.5 148.29,-1476.5"/>
<text xml:space="preserve" text-anchor="middle" x="99.64" y="-1454.8" font-family="Helvetica,sans-Serif" font-size="11.00">vcl_audience_demo/</text>
</g>
<!-- c_bq -->
<g id="node10" class="node">
<title>c_bq</title>
<path fill="#dcf3e2" stroke="#2f7d3a" d="M651.33,-565.98C651.33,-568.73 610.7,-570.97 560.68,-570.97 510.67,-570.97 470.04,-568.73 470.04,-565.98 470.04,-565.98 470.04,-521.02 470.04,-521.02 470.04,-518.27 510.67,-516.03 560.68,-516.03 610.7,-516.03 651.33,-518.27 651.33,-521.02 651.33,-521.02 651.33,-565.98 651.33,-565.98"/>
<path fill="none" stroke="#2f7d3a" d="M651.33,-565.98C651.33,-563.22 610.7,-560.98 560.68,-560.98 510.67,-560.98 470.04,-563.22 470.04,-565.98"/>
<text xml:space="preserve" text-anchor="start" x="481.56" y="-546.55" font-family="Helvetica,sans-Serif" font-size="11.00">BigQuery</text>
<text xml:space="preserve" text-anchor="start" x="481.56" y="-533.05" font-family="Helvetica,sans-Serif" font-size="11.00">ecommerce + ecommerce_views</text>
</g>
<!-- r_demo&#45;&gt;c_bq -->
<g id="edge25" class="edge">
<title>r_demo&#45;&gt;c_bq</title>
<path fill="none" stroke="#2b6cb0" stroke-dasharray="5,2" d="M135.78,-1440.14C155.14,-1430.03 175.29,-1419.5 175.29,-1419.5 175.29,-1419.5 262.29,-737 262.29,-737 262.29,-737 383.04,-690.5 383.04,-690.5 383.04,-690.5 454.04,-592.5 454.04,-592.5 454.04,-592.5 470.47,-584.88 490.36,-575.65"/>
<polygon fill="#2b6cb0" stroke="#2b6cb0" points="491.71,-578.88 499.31,-571.5 488.77,-572.53 491.71,-578.88"/>
<text xml:space="preserve" text-anchor="middle" x="322.66" y="-738.95" font-family="Helvetica,sans-Serif" font-size="9.00" fill="#2b6cb0">runtime: safe views</text>
</g>
<!-- r_demo&#45;&gt;c_run -->
<g id="edge24" class="edge">
<title>r_demo&#45;&gt;c_run</title>
<path fill="none" stroke="#2b6cb0" stroke-dasharray="5,2" d="M135.78,-1440.14C155.14,-1430.03 175.29,-1419.5 175.29,-1419.5 175.29,-1419.5 262.29,-801 262.29,-801 262.29,-801 383.04,-749.5 383.04,-749.5 383.04,-749.5 454.04,-671.5 454.04,-671.5 454.04,-671.5 476.17,-663.12 500.17,-654.03"/>
<polygon fill="#2b6cb0" stroke="#2b6cb0" points="501.35,-657.33 509.47,-650.51 498.88,-650.78 501.35,-657.33"/>
<text xml:space="preserve" text-anchor="middle" x="322.66" y="-802.95" font-family="Helvetica,sans-Serif" font-size="9.00" fill="#2b6cb0">runtime: MCP/HTTPS</text>
</g>
<!-- r_setup -->
<g id="node4" class="node">
<title>r_setup</title>
<path fill="#dbe4ff" stroke="#c0272d" stroke-width="2.2" d="M114.64,-1397.5C114.64,-1397.5 84.64,-1397.5 84.64,-1397.5 78.64,-1397.5 72.64,-1391.5 72.64,-1385.5 72.64,-1385.5 72.64,-1373.5 72.64,-1373.5 72.64,-1367.5 78.64,-1361.5 84.64,-1361.5 84.64,-1361.5 114.64,-1361.5 114.64,-1361.5 120.64,-1361.5 126.64,-1367.5 126.64,-1373.5 126.64,-1373.5 126.64,-1385.5 126.64,-1385.5 126.64,-1391.5 120.64,-1397.5 114.64,-1397.5"/>
<text xml:space="preserve" text-anchor="middle" x="99.64" y="-1375.8" font-family="Helvetica,sans-Serif" font-size="11.00">setup/</text>
</g>
<!-- r_setup&#45;&gt;c_bq -->
<g id="edge1" class="edge">
<title>r_setup&#45;&gt;c_bq</title>
<path fill="none" stroke="#333333" d="M127.59,-1365.42C148.97,-1354.25 175.29,-1340.5 175.29,-1340.5 175.29,-1340.5 262.29,-678 262.29,-678 262.29,-678 383.04,-631.5 383.04,-631.5 383.04,-631.5 454.04,-592.5 454.04,-592.5 454.04,-592.5 470.47,-584.88 490.36,-575.65"/>
<polygon fill="#333333" stroke="#333333" points="491.71,-578.88 499.31,-571.5 488.77,-572.53 491.71,-578.88"/>
<text xml:space="preserve" text-anchor="middle" x="322.66" y="-679.95" font-family="Helvetica,sans-Serif" font-size="9.00" fill="#333333">terraform apply</text>
</g>
<!-- r_setup&#45;&gt;c_bq -->
<g id="edge12" class="edge">
<title>r_setup&#45;&gt;c_bq</title>
<path fill="none" stroke="#333333" stroke-dasharray="5,2" d="M127.59,-1365.42C148.97,-1354.25 175.29,-1340.5 175.29,-1340.5 175.29,-1340.5 262.29,-619 262.29,-619 262.29,-619 372.49,-591.02 458.73,-569.13"/>
<polygon fill="#333333" stroke="#333333" points="459.35,-572.58 468.18,-566.73 457.63,-565.8 459.35,-572.58"/>
<text xml:space="preserve" text-anchor="middle" x="322.66" y="-620.95" font-family="Helvetica,sans-Serif" font-size="9.00" fill="#333333">bq load script</text>
</g>
<!-- c_scan -->
<g id="node11" class="node">
<title>c_scan</title>
<path fill="#dcf3e2" stroke="#2f7d3a" d="M604.08,-473.48C604.08,-473.48 517.29,-473.48 517.29,-473.48 511.29,-473.48 505.29,-467.48 505.29,-461.48 505.29,-461.48 505.29,-445.52 505.29,-445.52 505.29,-439.52 511.29,-433.52 517.29,-433.52 517.29,-433.52 604.08,-433.52 604.08,-433.52 610.08,-433.52 616.08,-439.52 616.08,-445.52 616.08,-445.52 616.08,-461.48 616.08,-461.48 616.08,-467.48 610.08,-473.48 604.08,-473.48"/>
<text xml:space="preserve" text-anchor="start" x="516.81" y="-456.55" font-family="Helvetica,sans-Serif" font-size="11.00">Dataplex DQ scan</text>
<text xml:space="preserve" text-anchor="start" x="516.81" y="-443.05" font-family="Helvetica,sans-Serif" font-size="11.00">customers&#45;quality</text>
</g>
<!-- r_setup&#45;&gt;c_scan -->
<g id="edge2" class="edge">
<title>r_setup&#45;&gt;c_scan</title>
<path fill="none" stroke="#333333" d="M127.59,-1365.42C148.97,-1354.25 175.29,-1340.5 175.29,-1340.5 175.29,-1340.5 262.29,-570 262.29,-570 262.29,-570 454.04,-494.5 454.04,-494.5 454.04,-494.5 474.06,-486.73 496.66,-477.96"/>
<polygon fill="#333333" stroke="#333333" points="497.7,-481.31 505.76,-474.43 495.17,-474.78 497.7,-481.31"/>
<text xml:space="preserve" text-anchor="middle" x="322.66" y="-571.95" font-family="Helvetica,sans-Serif" font-size="9.00" fill="#333333">terraform apply</text>
</g>
<!-- c_vaspect -->
<g id="node12" class="node">
<title>c_vaspect</title>
<path fill="#dcf3e2" stroke="#2f7d3a" d="M617.2,-311.5C617.2,-311.5 504.16,-311.5 504.16,-311.5 498.16,-311.5 492.16,-305.5 492.16,-299.5 492.16,-299.5 492.16,-287.5 492.16,-287.5 492.16,-281.5 498.16,-275.5 504.16,-275.5 504.16,-275.5 617.2,-275.5 617.2,-275.5 623.2,-275.5 629.2,-281.5 629.2,-287.5 629.2,-287.5 629.2,-299.5 629.2,-299.5 629.2,-305.5 623.2,-311.5 617.2,-311.5"/>
<text xml:space="preserve" text-anchor="middle" x="560.68" y="-289.8" font-family="Helvetica,sans-Serif" font-size="11.00">Aspect&#45;type: verification</text>
</g>
<!-- r_setup&#45;&gt;c_vaspect -->
<g id="edge3" class="edge">
<title>r_setup&#45;&gt;c_vaspect</title>
<path fill="none" stroke="#333333" d="M127.59,-1365.42C148.97,-1354.25 175.29,-1340.5 175.29,-1340.5 175.29,-1340.5 262.29,-442 262.29,-442 262.29,-442 383.04,-395.5 383.04,-395.5 383.04,-395.5 454.04,-333.5 454.04,-333.5 454.04,-333.5 476.17,-325.12 500.17,-316.03"/>
<polygon fill="#333333" stroke="#333333" points="501.35,-319.33 509.47,-312.51 498.88,-312.78 501.35,-319.33"/>
<text xml:space="preserve" text-anchor="middle" x="322.66" y="-443.95" font-family="Helvetica,sans-Serif" font-size="9.00" fill="#333333">terraform apply</text>
</g>
<!-- r_setup&#45;&gt;c_dpc -->
<g id="edge13" class="edge">
<title>r_setup&#45;&gt;c_dpc</title>
<path fill="none" stroke="#333333" stroke-dasharray="5,2" d="M127.59,-1365.42C148.97,-1354.25 175.29,-1340.5 175.29,-1340.5 175.29,-1340.5 262.29,-398.5 262.29,-398.5 262.29,-398.5 383.04,-346.5 383.04,-346.5 383.04,-346.5 454.04,0 454.04,0 454.04,0 651.33,0 651.33,0 651.33,0 859.08,-31.5 859.08,-31.5 859.08,-31.5 939.77,-87.19 989.81,-121.73"/>
<polygon fill="#333333" stroke="#333333" points="987.61,-124.46 997.83,-127.26 991.58,-118.7 987.61,-124.46"/>
<text xml:space="preserve" text-anchor="middle" x="560.68" y="-1.95" font-family="Helvetica,sans-Serif" font-size="9.00" fill="#333333">curl REST script</text>
</g>
<!-- c_sas -->
<g id="node15" class="node">
<title>c_sas</title>
<path fill="#dcf3e2" stroke="#2f7d3a" d="M617.2,-390.5C617.2,-390.5 504.16,-390.5 504.16,-390.5 498.16,-390.5 492.16,-384.5 492.16,-378.5 492.16,-378.5 492.16,-366.5 492.16,-366.5 492.16,-360.5 498.16,-354.5 504.16,-354.5 504.16,-354.5 617.2,-354.5 617.2,-354.5 623.2,-354.5 629.2,-360.5 629.2,-366.5 629.2,-366.5 629.2,-378.5 629.2,-378.5 629.2,-384.5 623.2,-390.5 617.2,-390.5"/>
<text xml:space="preserve" text-anchor="middle" x="560.68" y="-368.8" font-family="Helvetica,sans-Serif" font-size="11.00">Service accounts + IAM</text>
</g>
<!-- r_setup&#45;&gt;c_sas -->
<g id="edge4" class="edge">
<title>r_setup&#45;&gt;c_sas</title>
<path fill="none" stroke="#333333" d="M127.59,-1365.42C148.97,-1354.25 175.29,-1340.5 175.29,-1340.5 175.29,-1340.5 262.29,-503 262.29,-503 262.29,-503 383.04,-454.5 383.04,-454.5 383.04,-454.5 454.04,-412.5 454.04,-412.5 454.04,-412.5 476.17,-404.12 500.17,-395.03"/>
<polygon fill="#333333" stroke="#333333" points="501.35,-398.33 509.47,-391.51 498.88,-391.78 501.35,-398.33"/>
<text xml:space="preserve" text-anchor="middle" x="322.66" y="-504.95" font-family="Helvetica,sans-Serif" font-size="9.00" fill="#333333">terraform apply</text>
</g>
<!-- r_deploy -->
<g id="node5" class="node">
<title>r_deploy</title>
<path fill="#dbe4ff" stroke="#c0272d" stroke-width="2.2" d="M116.41,-1318.5C116.41,-1318.5 82.87,-1318.5 82.87,-1318.5 76.87,-1318.5 70.87,-1312.5 70.87,-1306.5 70.87,-1306.5 70.87,-1294.5 70.87,-1294.5 70.87,-1288.5 76.87,-1282.5 82.87,-1282.5 82.87,-1282.5 116.41,-1282.5 116.41,-1282.5 122.41,-1282.5 128.41,-1288.5 128.41,-1294.5 128.41,-1294.5 128.41,-1306.5 128.41,-1306.5 128.41,-1312.5 122.41,-1318.5 116.41,-1318.5"/>
<text xml:space="preserve" text-anchor="middle" x="99.64" y="-1296.8" font-family="Helvetica,sans-Serif" font-size="11.00">deploy/</text>
</g>
<!-- c_ar -->
<g id="node16" class="node">
<title>c_ar</title>
<path fill="#dcf3e2" stroke="#2f7d3a" d="M628.83,-232.5C628.83,-232.5 492.54,-232.5 492.54,-232.5 486.54,-232.5 480.54,-226.5 480.54,-220.5 480.54,-220.5 480.54,-208.5 480.54,-208.5 480.54,-202.5 486.54,-196.5 492.54,-196.5 492.54,-196.5 628.83,-196.5 628.83,-196.5 634.83,-196.5 640.83,-202.5 640.83,-208.5 640.83,-208.5 640.83,-220.5 640.83,-220.5 640.83,-226.5 634.83,-232.5 628.83,-232.5"/>
<text xml:space="preserve" text-anchor="middle" x="560.68" y="-210.8" font-family="Helvetica,sans-Serif" font-size="11.00">Artifact Registry: vcl + image</text>
</g>
<!-- r_deploy&#45;&gt;c_ar -->
<g id="edge8" class="edge">
<title>r_deploy&#45;&gt;c_ar</title>
<path fill="none" stroke="#333333" d="M129.29,-1285.53C150.34,-1274.53 175.29,-1261.5 175.29,-1261.5 175.29,-1261.5 262.29,-216 262.29,-216 262.29,-216 381.59,-215.4 469.07,-214.96"/>
<polygon fill="#333333" stroke="#333333" points="468.88,-218.46 478.87,-214.91 468.85,-211.46 468.88,-218.46"/>
<text xml:space="preserve" text-anchor="middle" x="322.66" y="-217.95" font-family="Helvetica,sans-Serif" font-size="9.00" fill="#333333">terraform apply</text>
</g>
<!-- r_deploy&#45;&gt;c_ar -->
<g id="edge14" class="edge">
<title>r_deploy&#45;&gt;c_ar</title>
<path fill="none" stroke="#333333" stroke-dasharray="5,2" d="M129.29,-1285.53C150.34,-1274.53 175.29,-1261.5 175.29,-1261.5 175.29,-1261.5 262.29,-359 262.29,-359 262.29,-359 454.04,-254.5 454.04,-254.5 454.04,-254.5 476.17,-246.12 500.17,-237.03"/>
<polygon fill="#333333" stroke="#333333" points="501.35,-240.33 509.47,-233.51 498.88,-233.78 501.35,-240.33"/>
<text xml:space="preserve" text-anchor="middle" x="322.66" y="-360.95" font-family="Helvetica,sans-Serif" font-size="9.00" fill="#333333">gcloud builds submit</text>
</g>
<!-- r_deploy&#45;&gt;c_run -->
<g id="edge7" class="edge">
<title>r_deploy&#45;&gt;c_run</title>
<path fill="none" stroke="#333333" d="M129.29,-1285.53C150.34,-1274.53 175.29,-1261.5 175.29,-1261.5 175.29,-1261.5 262.29,-379 262.29,-379 262.29,-379 383.04,-379 383.04,-379 383.04,-379 454.04,-592.5 454.04,-592.5 454.04,-592.5 475.51,-600.43 499.1,-609.13"/>
<polygon fill="#333333" stroke="#333333" points="497.63,-612.32 508.23,-612.5 500.06,-605.76 497.63,-612.32"/>
<text xml:space="preserve" text-anchor="middle" x="322.66" y="-380.95" font-family="Helvetica,sans-Serif" font-size="9.00" fill="#333333">terraform apply</text>
</g>
<!-- r_audit -->
<g id="node6" class="node">
<title>r_audit</title>
<path fill="#dbe4ff" stroke="#c0272d" stroke-width="2.2" d="M114.64,-1555.5C114.64,-1555.5 84.64,-1555.5 84.64,-1555.5 78.64,-1555.5 72.64,-1549.5 72.64,-1543.5 72.64,-1543.5 72.64,-1531.5 72.64,-1531.5 72.64,-1525.5 78.64,-1519.5 84.64,-1519.5 84.64,-1519.5 114.64,-1519.5 114.64,-1519.5 120.64,-1519.5 126.64,-1525.5 126.64,-1531.5 126.64,-1531.5 126.64,-1543.5 126.64,-1543.5 126.64,-1549.5 120.64,-1555.5 114.64,-1555.5"/>
<text xml:space="preserve" text-anchor="middle" x="99.64" y="-1533.8" font-family="Helvetica,sans-Serif" font-size="11.00">audit/</text>
</g>
<!-- r_audit&#45;&gt;c_fs -->
<g id="edge9" class="edge">
<title>r_audit&#45;&gt;c_fs</title>
<path fill="none" stroke="#333333" d="M127.59,-1523.42C148.97,-1512.25 175.29,-1498.5 175.29,-1498.5 175.29,-1498.5 262.29,-938 262.29,-938 262.29,-938 454.04,-750.5 454.04,-750.5 454.04,-750.5 476.17,-742.12 500.17,-733.03"/>
<polygon fill="#333333" stroke="#333333" points="501.35,-736.33 509.47,-729.51 498.88,-729.78 501.35,-736.33"/>
<text xml:space="preserve" text-anchor="middle" x="322.66" y="-939.95" font-family="Helvetica,sans-Serif" font-size="9.00" fill="#333333">terraform apply</text>
</g>
<!-- r_steward -->
<g id="node7" class="node">
<title>r_steward</title>
<path fill="#dbe4ff" stroke="#c0272d" stroke-width="2.2" d="M580.83,-1260.5C580.83,-1260.5 540.54,-1260.5 540.54,-1260.5 534.54,-1260.5 528.54,-1254.5 528.54,-1248.5 528.54,-1248.5 528.54,-1236.5 528.54,-1236.5 528.54,-1230.5 534.54,-1224.5 540.54,-1224.5 540.54,-1224.5 580.83,-1224.5 580.83,-1224.5 586.83,-1224.5 592.83,-1230.5 592.83,-1236.5 592.83,-1236.5 592.83,-1248.5 592.83,-1248.5 592.83,-1254.5 586.83,-1260.5 580.83,-1260.5"/>
<text xml:space="preserve" text-anchor="middle" x="560.68" y="-1238.8" font-family="Helvetica,sans-Serif" font-size="11.00">steward/</text>
</g>
<!-- c_gaspect -->
<g id="node13" class="node">
<title>c_gaspect</title>
<path fill="#dcf3e2" stroke="#2f7d3a" d="M630.7,-153.5C630.7,-153.5 490.66,-153.5 490.66,-153.5 484.66,-153.5 478.66,-147.5 478.66,-141.5 478.66,-141.5 478.66,-129.5 478.66,-129.5 478.66,-123.5 484.66,-117.5 490.66,-117.5 490.66,-117.5 630.7,-117.5 630.7,-117.5 636.7,-117.5 642.7,-123.5 642.7,-129.5 642.7,-129.5 642.7,-141.5 642.7,-141.5 642.7,-147.5 636.7,-153.5 630.7,-153.5"/>
<text xml:space="preserve" text-anchor="middle" x="560.68" y="-131.8" font-family="Helvetica,sans-Serif" font-size="11.00">Aspect&#45;type: governance&#45;drift</text>
</g>
<!-- r_steward&#45;&gt;c_gaspect -->
<g id="edge10" class="edge">
<title>r_steward&#45;&gt;c_gaspect</title>
<path fill="none" stroke="#333333" d="M527.76,-1233.23C464.96,-1215.55 334.25,-1178.75 334.25,-1178.75 334.25,-1178.75 334.25,-1168.25 334.25,-1168.25 334.25,-1168.25 454.04,-175.5 454.04,-175.5 454.04,-175.5 476.58,-167.05 500.93,-157.91"/>
<polygon fill="#333333" stroke="#333333" points="501.87,-161.3 510,-154.51 499.41,-154.74 501.87,-161.3"/>
<text xml:space="preserve" text-anchor="middle" x="322.66" y="-1170.2" font-family="Helvetica,sans-Serif" font-size="9.00" fill="#333333">terraform apply</text>
</g>
<!-- r_steward&#45;&gt;c_dpc -->
<g id="edge23" class="edge">
<title>r_steward&#45;&gt;c_dpc</title>
<path fill="none" stroke="#2b6cb0" stroke-dasharray="5,2" d="M593.8,-1223.52C619.52,-1208.31 651.33,-1189.5 651.33,-1189.5 651.33,-1189.5 954.78,-352.19 1017.38,-179.45"/>
<polygon fill="#2b6cb0" stroke="#2b6cb0" points="1020.6,-180.84 1020.72,-170.25 1014.02,-178.46 1020.6,-180.84"/>
<text xml:space="preserve" text-anchor="middle" x="798.7" y="-939.88" font-family="Helvetica,sans-Serif" font-size="9.00" fill="#2b6cb0">runtime: seal + display aspect</text>
</g>
<!-- c_ps -->
<g id="node19" class="node">
<title>c_ps</title>
<path fill="#dcf3e2" stroke="#2f7d3a" d="M610.45,-1139.48C610.45,-1139.48 510.91,-1139.48 510.91,-1139.48 504.91,-1139.48 498.91,-1133.48 498.91,-1127.48 498.91,-1127.48 498.91,-1111.52 498.91,-1111.52 498.91,-1105.52 504.91,-1099.52 510.91,-1099.52 510.91,-1099.52 610.45,-1099.52 610.45,-1099.52 616.45,-1099.52 622.45,-1105.52 622.45,-1111.52 622.45,-1111.52 622.45,-1127.48 622.45,-1127.48 622.45,-1133.48 616.45,-1139.48 610.45,-1139.48"/>
<text xml:space="preserve" text-anchor="start" x="510.43" y="-1122.55" font-family="Helvetica,sans-Serif" font-size="11.00">Pub/Sub: topic + sub</text>
<text xml:space="preserve" text-anchor="start" x="510.43" y="-1109.05" font-family="Helvetica,sans-Serif" font-size="11.00">(global)</text>
</g>
<!-- r_steward&#45;&gt;c_ps -->
<g id="edge11" class="edge">
<title>r_steward&#45;&gt;c_ps</title>
<path fill="none" stroke="#333333" d="M560.68,-1223.77C560.68,-1204.49 560.68,-1174.08 560.68,-1151.07"/>
<polygon fill="#333333" stroke="#333333" points="564.19,-1151.32 560.69,-1141.32 557.19,-1151.32 564.19,-1151.32"/>
<text xml:space="preserve" text-anchor="middle" x="552.43" y="-1178.69" font-family="Helvetica,sans-Serif" font-size="9.00" fill="#333333">terraform apply</text>
</g>
<!-- r_schemas -->
<g id="node8" class="node">
<title>r_schemas</title>
<path fill="#dbe4ff" stroke="#c0272d" stroke-width="2.2" d="M135.54,-1239.5C135.54,-1239.5 63.75,-1239.5 63.75,-1239.5 57.75,-1239.5 51.75,-1233.5 51.75,-1227.5 51.75,-1227.5 51.75,-1215.5 51.75,-1215.5 51.75,-1209.5 57.75,-1203.5 63.75,-1203.5 63.75,-1203.5 135.54,-1203.5 135.54,-1203.5 141.54,-1203.5 147.54,-1209.5 147.54,-1215.5 147.54,-1215.5 147.54,-1227.5 147.54,-1227.5 147.54,-1233.5 141.54,-1239.5 135.54,-1239.5"/>
<text xml:space="preserve" text-anchor="middle" x="99.64" y="-1217.8" font-family="Helvetica,sans-Serif" font-size="11.00">schemas/*.json</text>
</g>
<!-- r_schemas&#45;&gt;c_vaspect -->
<g id="edge5" class="edge">
<title>r_schemas&#45;&gt;c_vaspect</title>
<path fill="none" stroke="#333333" d="M103.52,-1202.57C125.21,-1059.75 262.29,-157 262.29,-157 262.29,-157 383.04,-157 383.04,-157 383.04,-157 454.04,-254.5 454.04,-254.5 454.04,-254.5 475.51,-262.43 499.1,-271.13"/>
<polygon fill="#333333" stroke="#333333" points="497.63,-274.32 508.23,-274.5 500.06,-267.76 497.63,-274.32"/>
<text xml:space="preserve" text-anchor="middle" x="322.66" y="-158.95" font-family="Helvetica,sans-Serif" font-size="9.00" fill="#333333">terraform file()</text>
</g>
<!-- r_schemas&#45;&gt;c_gaspect -->
<g id="edge6" class="edge">
<title>r_schemas&#45;&gt;c_gaspect</title>
<path fill="none" stroke="#333333" d="M103.45,-1202.68C124.92,-1058.67 262.29,-137 262.29,-137 262.29,-137 379.84,-136.41 467.13,-135.97"/>
<polygon fill="#333333" stroke="#333333" points="466.92,-139.47 476.91,-135.92 466.89,-132.47 466.92,-139.47"/>
<text xml:space="preserve" text-anchor="middle" x="322.66" y="-138.95" font-family="Helvetica,sans-Serif" font-size="9.00" fill="#333333">terraform file()</text>
</g>
<!-- r_wt -->
<g id="node9" class="node">
<title>r_wt</title>
<path fill="#dbe4ff" stroke="#c0272d" stroke-width="2.2" d="M163.29,-1796.5C163.29,-1796.5 36,-1796.5 36,-1796.5 30,-1796.5 24,-1790.5 24,-1784.5 24,-1784.5 24,-1772.5 24,-1772.5 24,-1766.5 30,-1760.5 36,-1760.5 36,-1760.5 163.29,-1760.5 163.29,-1760.5 169.29,-1760.5 175.29,-1766.5 175.29,-1772.5 175.29,-1772.5 175.29,-1784.5 175.29,-1784.5 175.29,-1790.5 169.29,-1796.5 163.29,-1796.5"/>
<text xml:space="preserve" text-anchor="middle" x="99.64" y="-1774.8" font-family="Helvetica,sans-Serif" font-size="11.00">steward/walkthrough_*.md</text>
</g>
<!-- r_wt&#45;&gt;r_steward -->
<g id="edge26" class="edge">
<title>r_wt&#45;&gt;r_steward</title>
<path fill="none" stroke="#c0272d" stroke-width="2" d="M153.76,-1759.5C235.56,-1730.25 383.04,-1677.5 383.04,-1677.5 383.04,-1677.5 507.9,-1370.03 547.67,-1272.09"/>
<polygon fill="#c0272d" stroke="#c0272d" stroke-width="2" points="550.32,-1274.86 550.84,-1264.28 543.84,-1272.22 550.32,-1274.86"/>
<text xml:space="preserve" text-anchor="middle" x="322.66" y="-1720.9" font-family="Helvetica,sans-Serif" font-size="9.00" fill="#c0272d">pushed Cloud Shell deep link</text>
</g>
<!-- c_run&#45;&gt;c_dpc -->
<g id="edge22" class="edge">
<title>c_run&#45;&gt;c_dpc</title>
<path fill="none" stroke="#2b6cb0" stroke-dasharray="5,2" d="M604.14,-613.03C627.32,-602.95 651.33,-592.5 651.33,-592.5 651.33,-592.5 920.53,-275.68 1004.14,-177.29"/>
<polygon fill="#2b6cb0" stroke="#2b6cb0" points="1006.62,-179.77 1010.43,-169.88 1001.29,-175.24 1006.62,-179.77"/>
<text xml:space="preserve" text-anchor="middle" x="798.7" y="-487.15" font-family="Helvetica,sans-Serif" font-size="9.00" fill="#2b6cb0">runtime: read verdict only</text>
</g>
</g>
</svg>
