<?xml version="1.0" encoding="UTF-8" standalone="no"?>
<!DOCTYPE svg PUBLIC "-//W3C//DTD SVG 1.1//EN"
 "http://www.w3.org/Graphics/SVG/1.1/DTD/svg11.dtd">
<!-- Generated by graphviz version 14.1.2 (0)
 -->
<!-- Title: steward_journey Pages: 1 -->
<svg width="1207pt" height="1254pt"
 viewBox="0.00 0.00 1207.00 1254.00" xmlns="http://www.w3.org/2000/svg" xmlns:xlink="http://www.w3.org/1999/xlink">
<g id="graph0" class="graph" transform="scale(1 1) rotate(0) translate(28.8 1225.36)">
<title>steward_journey</title>
<polygon fill="white" stroke="none" points="-28.8,28.8 -28.8,-1225.36 1178.15,-1225.36 1178.15,28.8 -28.8,28.8"/>
<text xml:space="preserve" text-anchor="middle" x="574.68" y="-1176.41" font-family="Helvetica,sans-Serif" font-size="17.00">VCL — Steward Journey &#160;(drift → alert → SEE → ACT → deliver)</text>
<!-- src -->
<g id="node1" class="node">
<title>src</title>
<path fill="#eceff3" stroke="#667788" d="M682.48,-1169.06C682.48,-1169.06 513.25,-1169.06 513.25,-1169.06 507.25,-1169.06 501.25,-1163.06 501.25,-1157.06 501.25,-1157.06 501.25,-1142.66 501.25,-1142.66 501.25,-1136.66 507.25,-1130.66 513.25,-1130.66 513.25,-1130.66 682.48,-1130.66 682.48,-1130.66 688.48,-1130.66 694.48,-1136.66 694.48,-1142.66 694.48,-1142.66 694.48,-1157.06 694.48,-1157.06 694.48,-1163.06 688.48,-1169.06 682.48,-1169.06"/>
<text xml:space="preserve" text-anchor="start" x="513.49" y="-1152.36" font-family="Helvetica,sans-Serif" font-size="10.00">Source edited</text>
<text xml:space="preserve" text-anchor="start" x="513.49" y="-1140.36" font-family="Helvetica,sans-Serif" font-size="10.00">a rule/schema changes, or a scan fails</text>
</g>
<!-- enf1 -->
<g id="node2" class="node">
<title>enf1</title>
<path fill="#dbe4ff" stroke="#3355aa" d="M697.48,-1076.16C697.48,-1076.16 498.25,-1076.16 498.25,-1076.16 492.25,-1076.16 486.25,-1070.16 486.25,-1064.16 486.25,-1064.16 486.25,-1049.76 486.25,-1049.76 486.25,-1043.76 492.25,-1037.76 498.25,-1037.76 498.25,-1037.76 697.48,-1037.76 697.48,-1037.76 703.48,-1037.76 709.48,-1043.76 709.48,-1049.76 709.48,-1049.76 709.48,-1064.16 709.48,-1064.16 709.48,-1070.16 703.48,-1076.16 697.48,-1076.16"/>
<text xml:space="preserve" text-anchor="start" x="498.49" y="-1059.46" font-family="Helvetica,sans-Serif" font-size="10.00">vcl.py enforce &#160;(deterministic, AI&#45;free)</text>
<text xml:space="preserve" text-anchor="start" x="498.49" y="-1047.46" font-family="Helvetica,sans-Serif" font-size="10.00">re&#45;read live state, compare vs sealed anchors</text>
</g>
<!-- src&#45;&gt;enf1 -->
<g id="edge1" class="edge">
<title>src&#45;&gt;enf1</title>
<path fill="none" stroke="#444444" d="M597.87,-1130.47C597.87,-1118.23 597.87,-1101.87 597.87,-1087.79"/>
<polygon fill="#444444" stroke="#444444" points="601.37,-1088.15 597.87,-1078.15 594.37,-1088.15 601.37,-1088.15"/>
<text xml:space="preserve" text-anchor="middle" x="627.87" y="-1100.11" font-family="Helvetica,sans-Serif" font-size="9.00">edit / scan fails</text>
</g>
<!-- enf2 -->
<g id="node3" class="node">
<title>enf2</title>
<path fill="#dbe4ff" stroke="#3355aa" d="M676.86,-983.26C676.86,-983.26 518.88,-983.26 518.88,-983.26 512.88,-983.26 506.88,-977.26 506.88,-971.26 506.88,-971.26 506.88,-956.86 506.88,-956.86 506.88,-950.86 512.88,-944.86 518.88,-944.86 518.88,-944.86 676.86,-944.86 676.86,-944.86 682.86,-944.86 688.86,-950.86 688.86,-956.86 688.86,-956.86 688.86,-971.26 688.86,-971.26 688.86,-977.26 682.86,-983.26 676.86,-983.26"/>
<text xml:space="preserve" text-anchor="start" x="519.12" y="-966.56" font-family="Helvetica,sans-Serif" font-size="10.00">enforce writes the VERDICT ONLY:</text>
<text xml:space="preserve" text-anchor="start" x="519.12" y="-954.56" font-family="Helvetica,sans-Serif" font-size="10.00">verification.source_tier = unverified</text>
</g>
<!-- enf1&#45;&gt;enf2 -->
<g id="edge2" class="edge">
<title>enf1&#45;&gt;enf2</title>
<path fill="none" stroke="#444444" d="M597.87,-1037.57C597.87,-1025.33 597.87,-1008.97 597.87,-994.89"/>
<polygon fill="#444444" stroke="#444444" points="601.37,-995.25 597.87,-985.25 594.37,-995.25 601.37,-995.25"/>
<text xml:space="preserve" text-anchor="middle" x="661.99" y="-1007.21" font-family="Helvetica,sans-Serif" font-size="9.00">anchors diverge (e.g. semantic)</text>
</g>
<!-- enf3 -->
<g id="node4" class="node">
<title>enf3</title>
<path fill="#dbe4ff" stroke="#3355aa" d="M386.48,-871.86C386.48,-871.86 151.25,-871.86 151.25,-871.86 145.25,-871.86 139.25,-865.86 139.25,-859.86 139.25,-859.86 139.25,-845.46 139.25,-845.46 139.25,-839.46 145.25,-833.46 151.25,-833.46 151.25,-833.46 386.48,-833.46 386.48,-833.46 392.48,-833.46 398.48,-839.46 398.48,-845.46 398.48,-845.46 398.48,-859.86 398.48,-859.86 398.48,-865.86 392.48,-871.86 386.48,-871.86"/>
<text xml:space="preserve" text-anchor="start" x="151.49" y="-855.16" font-family="Helvetica,sans-Serif" font-size="10.00">enforce emits VCL_DRIFT_DETECTED (WARNING)</text>
<text xml:space="preserve" text-anchor="start" x="151.49" y="-843.16" font-family="Helvetica,sans-Serif" font-size="10.00">to logs/vcl&#45;drift</text>
</g>
<!-- enf2&#45;&gt;enf3 -->
<g id="edge3" class="edge">
<title>enf2&#45;&gt;enf3</title>
<path fill="none" stroke="#444444" d="M541.68,-944.38C484.63,-925.41 396.3,-896.04 335.7,-875.88"/>
<polygon fill="#444444" stroke="#444444" points="337.12,-872.67 326.53,-872.83 334.91,-879.31 337.12,-872.67"/>
</g>
<!-- adv -->
<g id="node5" class="node">
<title>adv</title>
<path fill="#ece3fb" stroke="#6b46c1" d="M748.86,-879.86C748.86,-879.86 446.88,-879.86 446.88,-879.86 440.88,-879.86 434.88,-873.86 434.88,-867.86 434.88,-867.86 434.88,-837.46 434.88,-837.46 434.88,-831.46 440.88,-825.46 446.88,-825.46 446.88,-825.46 748.86,-825.46 748.86,-825.46 754.86,-825.46 760.86,-831.46 760.86,-837.46 760.86,-837.46 760.86,-867.86 760.86,-867.86 760.86,-873.86 754.86,-879.86 748.86,-879.86"/>
<text xml:space="preserve" text-anchor="start" x="447.12" y="-864.16" font-family="Helvetica,sans-Serif" font-weight="bold" font-size="10.00">SEPARATE advisory step — the AI lives here, not in enforce</text>
<text xml:space="preserve" text-anchor="start" x="447.12" y="-854.16" font-family="Helvetica,sans-Serif" font-size="10.00">vcl_triage.py (LLM) classifies cosmetic / substantive;</text>
<text xml:space="preserve" text-anchor="start" x="447.12" y="-844.16" font-family="Helvetica,sans-Serif" font-size="10.00">write_drift_aspect.py writes Governance Drift = PENDING_REVIEW</text>
<text xml:space="preserve" text-anchor="start" x="447.12" y="-834.16" font-family="Helvetica,sans-Serif" font-size="10.00">+ classification — DISPLAY ONLY, the gate never reads it</text>
</g>
<!-- enf2&#45;&gt;adv -->
<g id="edge13" class="edge">
<title>enf2&#45;&gt;adv</title>
<path fill="none" stroke="#6b46c1" stroke-dasharray="5,2" d="M597.87,-944.5C597.87,-930 597.87,-909.36 597.87,-891.42"/>
<polygon fill="#6b46c1" stroke="#6b46c1" points="601.37,-891.63 597.87,-881.63 594.37,-891.63 601.37,-891.63"/>
<text xml:space="preserve" text-anchor="middle" x="634.24" y="-914.31" font-family="Helvetica,sans-Serif" font-size="9.00" fill="#6b46c1">separate advisory</text>
<text xml:space="preserve" text-anchor="middle" x="634.24" y="-903.81" font-family="Helvetica,sans-Serif" font-size="9.00" fill="#6b46c1">write (display)</text>
</g>
<!-- block -->
<g id="node6" class="node">
<title>block</title>
<path fill="#dcf3e2" stroke="#2f7d3a" d="M1137.36,-879.86C1137.36,-879.86 808.38,-879.86 808.38,-879.86 802.38,-879.86 796.38,-873.86 796.38,-867.86 796.38,-867.86 796.38,-837.46 796.38,-837.46 796.38,-831.46 802.38,-825.46 808.38,-825.46 808.38,-825.46 1137.36,-825.46 1137.36,-825.46 1143.36,-825.46 1149.36,-831.46 1149.36,-837.46 1149.36,-837.46 1149.36,-867.86 1149.36,-867.86 1149.36,-873.86 1143.36,-879.86 1137.36,-879.86"/>
<text xml:space="preserve" text-anchor="start" x="808.62" y="-864.16" font-family="Helvetica,sans-Serif" font-weight="bold" font-size="10.00">Meanwhile — agents are already blocked</text>
<text xml:space="preserve" text-anchor="start" x="808.62" y="-854.16" font-family="Helvetica,sans-Serif" font-size="10.00">Agent → wrapper lookup_context → wrapper reads the verdict → unverified</text>
<text xml:space="preserve" text-anchor="start" x="808.62" y="-844.16" font-family="Helvetica,sans-Serif" font-size="10.00">→ WITHHOLD + honest note (&quot;do not infer or fabricate&quot;)</text>
<text xml:space="preserve" text-anchor="start" x="808.62" y="-834.16" font-family="Helvetica,sans-Serif" font-size="10.00">the action tool ALSO refuses on the verdict — two structural layers</text>
</g>
<!-- enf2&#45;&gt;block -->
<g id="edge14" class="edge">
<title>enf2&#45;&gt;block</title>
<path fill="none" stroke="#2f7d3a" stroke-dasharray="5,2" d="M661.9,-944.38C719.17,-927.67 804.1,-902.89 870.74,-883.45"/>
<polygon fill="#2f7d3a" stroke="#2f7d3a" points="871.61,-886.84 880.23,-880.68 869.65,-880.12 871.61,-886.84"/>
<text xml:space="preserve" text-anchor="middle" x="826.61" y="-914.31" font-family="Helvetica,sans-Serif" font-size="9.00" fill="#2f7d3a">verdict already</text>
<text xml:space="preserve" text-anchor="middle" x="826.61" y="-903.81" font-family="Helvetica,sans-Serif" font-size="9.00" fill="#2f7d3a">gates agents</text>
</g>
<!-- alert -->
<g id="node7" class="node">
<title>alert</title>
<path fill="#eef0f2" stroke="#555566" d="M375.98,-780.46C375.98,-780.46 161.75,-780.46 161.75,-780.46 155.75,-780.46 149.75,-774.46 149.75,-768.46 149.75,-768.46 149.75,-742.06 149.75,-742.06 149.75,-736.06 155.75,-730.06 161.75,-730.06 161.75,-730.06 375.98,-730.06 375.98,-730.06 381.98,-730.06 387.98,-736.06 387.98,-742.06 387.98,-742.06 387.98,-768.46 387.98,-768.46 387.98,-774.46 381.98,-780.46 375.98,-780.46"/>
<text xml:space="preserve" text-anchor="start" x="161.99" y="-763.76" font-family="Helvetica,sans-Serif" font-size="10.00">Logging → Monitoring policy &#39;VCL Drift Detected&#39;</text>
<text xml:space="preserve" text-anchor="start" x="161.99" y="-751.76" font-family="Helvetica,sans-Serif" font-size="10.00">→ Slack + email: &#160;SEE url &#160;+ &#160;ACT deep link</text>
<text xml:space="preserve" text-anchor="start" x="161.99" y="-739.76" font-family="Helvetica,sans-Serif" font-size="10.00">(deep link is STATIC → cosmetic walkthrough)</text>
</g>
<!-- enf3&#45;&gt;alert -->
<g id="edge4" class="edge">
<title>enf3&#45;&gt;alert</title>
<path fill="none" stroke="#444444" d="M268.87,-833.27C268.87,-821.59 268.87,-806.09 268.87,-792.06"/>
<polygon fill="#444444" stroke="#444444" points="272.37,-792.25 268.87,-782.25 265.37,-792.25 272.37,-792.25"/>
</g>
<!-- see -->
<g id="node8" class="node">
<title>see</title>
<path fill="#fdf0d5" stroke="#b8860b" d="M402.98,-675.56C402.98,-675.56 134.75,-675.56 134.75,-675.56 128.75,-675.56 122.75,-669.56 122.75,-663.56 122.75,-663.56 122.75,-637.16 122.75,-637.16 122.75,-631.16 128.75,-625.16 134.75,-625.16 134.75,-625.16 402.98,-625.16 402.98,-625.16 408.98,-625.16 414.98,-631.16 414.98,-637.16 414.98,-637.16 414.98,-663.56 414.98,-663.56 414.98,-669.56 408.98,-675.56 402.98,-675.56"/>
<text xml:space="preserve" text-anchor="start" x="134.99" y="-658.86" font-family="Helvetica,sans-Serif" font-size="10.00">Steward — 1. SEE: open the entry</text>
<text xml:space="preserve" text-anchor="start" x="134.99" y="-646.86" font-family="Helvetica,sans-Serif" font-size="10.00">reads which dimension drifted, AI reasoning, recommendation</text>
<text xml:space="preserve" text-anchor="start" x="134.99" y="-634.86" font-family="Helvetica,sans-Serif" font-size="10.00">(from the display aspect)</text>
</g>
<!-- alert&#45;&gt;see -->
<g id="edge5" class="edge">
<title>alert&#45;&gt;see</title>
<path fill="none" stroke="#444444" d="M268.87,-729.61C268.87,-716.89 268.87,-701.12 268.87,-687.09"/>
<polygon fill="#444444" stroke="#444444" points="272.37,-687.32 268.87,-677.32 265.37,-687.32 272.37,-687.32"/>
<text xml:space="preserve" text-anchor="middle" x="301.12" y="-699.51" font-family="Helvetica,sans-Serif" font-size="9.00">steward notified</text>
</g>
<!-- decision -->
<g id="node9" class="node">
<title>decision</title>
<path fill="#fff3cd" stroke="#b8860b" d="M257.31,-576.94C257.31,-576.94 183.97,-556.5 183.97,-556.5 178.19,-554.89 178.19,-551.67 183.97,-550.06 183.97,-550.06 257.31,-529.62 257.31,-529.62 263.09,-528.01 274.64,-528.01 280.42,-529.62 280.42,-529.62 353.76,-550.06 353.76,-550.06 359.54,-551.67 359.54,-554.89 353.76,-556.5 353.76,-556.5 280.42,-576.94 280.42,-576.94 274.64,-578.55 263.09,-578.55 257.31,-576.94"/>
<text xml:space="preserve" text-anchor="start" x="188.94" y="-555.78" font-family="Helvetica,sans-Serif" font-size="10.00">AI classification?</text>
<text xml:space="preserve" text-anchor="middle" x="268.87" y="-543.78" font-family="Helvetica,sans-Serif" font-size="10.00">(shown on the entry)</text>
</g>
<!-- see&#45;&gt;decision -->
<g id="edge6" class="edge">
<title>see&#45;&gt;decision</title>
<path fill="none" stroke="#444444" d="M268.87,-624.87C268.87,-614.75 268.87,-602.78 268.87,-591.6"/>
<polygon fill="#444444" stroke="#444444" points="272.37,-591.86 268.87,-581.86 265.37,-591.86 272.37,-591.86"/>
</g>
<!-- c1 -->
<g id="node10" class="node">
<title>c1</title>
<path fill="#fdf0d5" stroke="#b8860b" d="M221.73,-465.9C221.73,-465.9 12,-465.9 12,-465.9 6,-465.9 0,-459.9 0,-453.9 0,-453.9 0,-439.5 0,-439.5 0,-433.5 6,-427.5 12,-427.5 12,-427.5 221.73,-427.5 221.73,-427.5 227.73,-427.5 233.73,-433.5 233.73,-439.5 233.73,-439.5 233.73,-453.9 233.73,-453.9 233.73,-459.9 227.73,-465.9 221.73,-465.9"/>
<text xml:space="preserve" text-anchor="start" x="12.24" y="-449.2" font-family="Helvetica,sans-Serif" font-size="10.00">2. ACT — open the cosmetic walkthrough</text>
<text xml:space="preserve" text-anchor="start" x="12.24" y="-437.2" font-family="Helvetica,sans-Serif" font-size="10.00">guidance + seal command (copy to Cloud Shell)</text>
</g>
<!-- decision&#45;&gt;c1 -->
<g id="edge7" class="edge">
<title>decision&#45;&gt;c1</title>
<path fill="none" stroke="#444444" d="M241.69,-533.58C216.94,-516.56 180.21,-491.29 153,-472.56"/>
<polygon fill="#444444" stroke="#444444" points="155.27,-469.88 145.05,-467.09 151.31,-475.64 155.27,-469.88"/>
<text xml:space="preserve" text-anchor="middle" x="215.42" y="-495.85" font-family="Helvetica,sans-Serif" font-size="9.00">cosmetic</text>
</g>
<!-- s1 -->
<g id="node13" class="node">
<title>s1</title>
<path fill="#fdf0d5" stroke="#b8860b" d="M562.36,-471.9C562.36,-471.9 281.38,-471.9 281.38,-471.9 275.38,-471.9 269.38,-465.9 269.38,-459.9 269.38,-459.9 269.38,-433.5 269.38,-433.5 269.38,-427.5 275.38,-421.5 281.38,-421.5 281.38,-421.5 562.36,-421.5 562.36,-421.5 568.36,-421.5 574.36,-427.5 574.36,-433.5 574.36,-433.5 574.36,-459.9 574.36,-459.9 574.36,-465.9 568.36,-471.9 562.36,-471.9"/>
<text xml:space="preserve" text-anchor="start" x="281.62" y="-455.2" font-family="Helvetica,sans-Serif" font-size="10.00">2. ACT — substantive walkthrough (separate file)</text>
<text xml:space="preserve" text-anchor="start" x="281.62" y="-443.2" font-family="Helvetica,sans-Serif" font-size="10.00">seal command is PHYSICALLY ABSENT — no one&#45;click re&#45;cert</text>
<text xml:space="preserve" text-anchor="start" x="281.62" y="-431.2" font-family="Helvetica,sans-Serif" font-size="10.00">investigate: which rule changed, confirm with the owner</text>
</g>
<!-- decision&#45;&gt;s1 -->
<g id="edge11" class="edge">
<title>decision&#45;&gt;s1</title>
<path fill="none" stroke="#444444" d="M296.22,-533.58C318.5,-518.36 350.41,-496.54 376.51,-478.7"/>
<polygon fill="#444444" stroke="#444444" points="378.3,-481.72 384.58,-473.19 374.35,-475.94 378.3,-481.72"/>
<text xml:space="preserve" text-anchor="middle" x="395.33" y="-495.85" font-family="Helvetica,sans-Serif" font-size="9.00">substantive / unknown</text>
</g>
<!-- c2 -->
<g id="node11" class="node">
<title>c2</title>
<path fill="#dbe4ff" stroke="#3355aa" d="M327.11,-367C327.11,-367 74.62,-367 74.62,-367 68.62,-367 62.62,-361 62.62,-355 62.62,-355 62.62,-328.6 62.62,-328.6 62.62,-322.6 68.62,-316.6 74.62,-316.6 74.62,-316.6 327.11,-316.6 327.11,-316.6 333.11,-316.6 339.11,-322.6 339.11,-328.6 339.11,-328.6 339.11,-355 339.11,-355 339.11,-361 333.11,-367 327.11,-367"/>
<text xml:space="preserve" text-anchor="start" x="74.87" y="-350.3" font-family="Helvetica,sans-Serif" font-size="10.00">vcl.py seal &#160;(steward AUTHORIZES, engine CERTIFIES)</text>
<text xml:space="preserve" text-anchor="start" x="74.87" y="-338.3" font-family="Helvetica,sans-Serif" font-size="10.00">verification = verified + sealed_by + seal_event_id</text>
<text xml:space="preserve" text-anchor="start" x="74.87" y="-326.3" font-family="Helvetica,sans-Serif" font-size="10.00">— VERDICT ONLY</text>
</g>
<!-- c1&#45;&gt;c2 -->
<g id="edge8" class="edge">
<title>c1&#45;&gt;c2</title>
<path fill="none" stroke="#444444" d="M131.88,-427.3C143.54,-413.03 160,-392.86 173.92,-375.81"/>
<polygon fill="#444444" stroke="#444444" points="176.35,-378.36 179.97,-368.4 170.93,-373.93 176.35,-378.36"/>
<text xml:space="preserve" text-anchor="middle" x="197.01" y="-390.95" font-family="Helvetica,sans-Serif" font-size="9.00">run the command</text>
</g>
<!-- c3 -->
<g id="node12" class="node">
<title>c3</title>
<path fill="#ece3fb" stroke="#6b46c1" d="M326.36,-234.2C326.36,-234.2 75.38,-234.2 75.38,-234.2 69.38,-234.2 63.38,-228.2 63.38,-222.2 63.38,-222.2 63.38,-195.8 63.38,-195.8 63.38,-189.8 69.38,-183.8 75.38,-183.8 75.38,-183.8 326.36,-183.8 326.36,-183.8 332.36,-183.8 338.36,-189.8 338.36,-195.8 338.36,-195.8 338.36,-222.2 338.36,-222.2 338.36,-228.2 332.36,-234.2 326.36,-234.2"/>
<text xml:space="preserve" text-anchor="start" x="75.62" y="-217.5" font-family="Helvetica,sans-Serif" font-size="10.00">… &amp;&amp; write_drift_aspect.py &#45;&#45;resolve</text>
<text xml:space="preserve" text-anchor="start" x="75.62" y="-205.5" font-family="Helvetica,sans-Serif" font-size="10.00">Governance Drift = RESOLVED</text>
<text xml:space="preserve" text-anchor="start" x="75.62" y="-193.5" font-family="Helvetica,sans-Serif" font-size="10.00">— DISPLAY ONLY, a SEPARATE chained step (not seal)</text>
</g>
<!-- c2&#45;&gt;c3 -->
<g id="edge9" class="edge">
<title>c2&#45;&gt;c3</title>
<path fill="none" stroke="#444444" d="M200.87,-316.2C200.87,-296.38 200.87,-268.23 200.87,-245.89"/>
<polygon fill="#444444" stroke="#444444" points="204.37,-246.01 200.87,-236.01 197.37,-246.01 204.37,-246.01"/>
<text xml:space="preserve" text-anchor="middle" x="227.49" y="-272.1" font-family="Helvetica,sans-Serif" font-size="9.00">chained (&amp;&amp;)</text>
</g>
<!-- deliver -->
<g id="node15" class="node">
<title>deliver</title>
<path fill="#dcf3e2" stroke="#2f7d3a" d="M323.48,-129.3C323.48,-129.3 118.25,-129.3 118.25,-129.3 112.25,-129.3 106.25,-123.3 106.25,-117.3 106.25,-117.3 106.25,-102.9 106.25,-102.9 106.25,-96.9 112.25,-90.9 118.25,-90.9 118.25,-90.9 323.48,-90.9 323.48,-90.9 329.48,-90.9 335.48,-96.9 335.48,-102.9 335.48,-102.9 335.48,-117.3 335.48,-117.3 335.48,-123.3 329.48,-129.3 323.48,-129.3"/>
<text xml:space="preserve" text-anchor="start" x="118.49" y="-112.6" font-family="Helvetica,sans-Serif" font-size="10.00">Agent retry → wrapper reads verdict → verified</text>
<text xml:space="preserve" text-anchor="start" x="118.49" y="-100.6" font-family="Helvetica,sans-Serif" font-size="10.00">→ DELIVER full governed context</text>
</g>
<!-- c3&#45;&gt;deliver -->
<g id="edge10" class="edge">
<title>c3&#45;&gt;deliver</title>
<path fill="none" stroke="#444444" d="M205.91,-183.55C208.58,-170.63 211.88,-154.66 214.69,-141"/>
<polygon fill="#444444" stroke="#444444" points="218.12,-141.72 216.71,-131.22 211.26,-140.3 218.12,-141.72"/>
<text xml:space="preserve" text-anchor="middle" x="272.81" y="-153.25" font-family="Helvetica,sans-Serif" font-size="9.00">verified → context flows again</text>
</g>
<!-- s2 -->
<g id="node14" class="node">
<title>s2</title>
<path fill="#f6d6d6" stroke="#c0272d" d="M510.98,-294.6C510.98,-294.6 296.75,-294.6 296.75,-294.6 290.75,-294.6 284.75,-288.6 284.75,-282.6 284.75,-282.6 284.75,-268.2 284.75,-268.2 284.75,-262.2 290.75,-256.2 296.75,-256.2 296.75,-256.2 510.98,-256.2 510.98,-256.2 516.98,-256.2 522.98,-262.2 522.98,-268.2 522.98,-268.2 522.98,-282.6 522.98,-282.6 522.98,-288.6 516.98,-294.6 510.98,-294.6"/>
<text xml:space="preserve" text-anchor="start" x="296.99" y="-277.9" font-family="Helvetica,sans-Serif" font-size="10.00">stays UNVERIFIED — context remains withheld</text>
<text xml:space="preserve" text-anchor="start" x="296.99" y="-265.9" font-family="Helvetica,sans-Serif" font-size="10.00">until the change is resolved</text>
</g>
<!-- s1&#45;&gt;s2 -->
<g id="edge12" class="edge">
<title>s1&#45;&gt;s2</title>
<path fill="none" stroke="#444444" d="M419.25,-421.08C416,-390.53 410.47,-338.5 407,-305.86"/>
<polygon fill="#444444" stroke="#444444" points="410.52,-305.87 405.98,-296.3 403.56,-306.61 410.52,-305.87"/>
</g>
<!-- footer -->
<g id="node16" class="node">
<title>footer</title>
<polygon fill="#fffbe6" stroke="#b8860b" points="485.61,-45.9 128.12,-45.9 128.12,0 491.61,0 491.61,-39.9 485.61,-45.9"/>
<polyline fill="none" stroke="#b8860b" points="485.61,-45.9 485.61,-39.9"/>
<polyline fill="none" stroke="#b8860b" points="491.61,-39.9 485.61,-39.9"/>
<text xml:space="preserve" text-anchor="start" x="140.37" y="-30.15" font-family="Helvetica,sans-Serif" font-size="9.00">The human AUTHORIZES; the deterministic engine CERTIFIES —</text>
<text xml:space="preserve" text-anchor="start" x="140.37" y="-19.65" font-family="Helvetica,sans-Serif" font-size="9.00">no status field is ever hand&#45;flipped. The VERDICT (verification aspect)</text>
<text xml:space="preserve" text-anchor="start" x="140.37" y="-9.15" font-family="Helvetica,sans-Serif" font-size="9.00">and the DISPLAY (governance&#45;drift aspect) are written by DIFFERENT components.</text>
</g>
<!-- s2&#45;&gt;footer -->
<!-- deliver&#45;&gt;footer -->
</g>
</svg>
