<?xml version="1.0" encoding="UTF-8" standalone="no"?>
<!DOCTYPE svg PUBLIC "-//W3C//DTD SVG 1.1//EN"
 "http://www.w3.org/Graphics/SVG/1.1/DTD/svg11.dtd">
<!-- Generated by graphviz version 14.1.2 (0)
 -->
<!-- Title: steward_journey Pages: 1 -->
<svg width="1202pt" height="1340pt"
 viewBox="0.00 0.00 1202.00 1340.00" xmlns="http://www.w3.org/2000/svg" xmlns:xlink="http://www.w3.org/1999/xlink">
<g id="graph0" class="graph" transform="scale(1 1) rotate(0) translate(28.8 1311.26)">
<title>steward_journey</title>
<polygon fill="white" stroke="none" points="-28.8,28.8 -28.8,-1311.26 1173.28,-1311.26 1173.28,28.8 -28.8,28.8"/>
<text xml:space="preserve" text-anchor="middle" x="572.24" y="-1262.31" font-family="Helvetica,sans-Serif" font-size="17.00">VCL — Steward Journey &#160;(drift → alert → SEE → REVIEW → deliver)</text>
<!-- src -->
<g id="node1" class="node">
<title>src</title>
<path fill="#eceff3" stroke="#667788" d="M677.61,-1254.96C677.61,-1254.96 508.38,-1254.96 508.38,-1254.96 502.38,-1254.96 496.38,-1248.96 496.38,-1242.96 496.38,-1242.96 496.38,-1228.56 496.38,-1228.56 496.38,-1222.56 502.38,-1216.56 508.38,-1216.56 508.38,-1216.56 677.61,-1216.56 677.61,-1216.56 683.61,-1216.56 689.61,-1222.56 689.61,-1228.56 689.61,-1228.56 689.61,-1242.96 689.61,-1242.96 689.61,-1248.96 683.61,-1254.96 677.61,-1254.96"/>
<text xml:space="preserve" text-anchor="start" x="508.62" y="-1238.26" font-family="Helvetica,sans-Serif" font-size="10.00">Source edited</text>
<text xml:space="preserve" text-anchor="start" x="508.62" y="-1226.26" font-family="Helvetica,sans-Serif" font-size="10.00">a rule/schema changes, or a scan fails</text>
</g>
<!-- enf1 -->
<g id="node2" class="node">
<title>enf1</title>
<path fill="#dbe4ff" stroke="#3355aa" d="M692.61,-1162.06C692.61,-1162.06 493.38,-1162.06 493.38,-1162.06 487.38,-1162.06 481.38,-1156.06 481.38,-1150.06 481.38,-1150.06 481.38,-1135.66 481.38,-1135.66 481.38,-1129.66 487.38,-1123.66 493.38,-1123.66 493.38,-1123.66 692.61,-1123.66 692.61,-1123.66 698.61,-1123.66 704.61,-1129.66 704.61,-1135.66 704.61,-1135.66 704.61,-1150.06 704.61,-1150.06 704.61,-1156.06 698.61,-1162.06 692.61,-1162.06"/>
<text xml:space="preserve" text-anchor="start" x="493.62" y="-1145.36" font-family="Helvetica,sans-Serif" font-size="10.00">vcl.py enforce &#160;(deterministic, AI&#45;free)</text>
<text xml:space="preserve" text-anchor="start" x="493.62" y="-1133.36" font-family="Helvetica,sans-Serif" font-size="10.00">re&#45;read live state, compare vs sealed anchors</text>
</g>
<!-- src&#45;&gt;enf1 -->
<g id="edge1" class="edge">
<title>src&#45;&gt;enf1</title>
<path fill="none" stroke="#444444" d="M592.99,-1216.37C592.99,-1204.13 592.99,-1187.77 592.99,-1173.69"/>
<polygon fill="#444444" stroke="#444444" points="596.49,-1174.05 592.99,-1164.05 589.49,-1174.05 596.49,-1174.05"/>
<text xml:space="preserve" text-anchor="middle" x="622.99" y="-1186.01" font-family="Helvetica,sans-Serif" font-size="9.00">edit / scan fails</text>
</g>
<!-- enf2 -->
<g id="node3" class="node">
<title>enf2</title>
<path fill="#dbe4ff" stroke="#3355aa" d="M671.98,-1069.16C671.98,-1069.16 514,-1069.16 514,-1069.16 508,-1069.16 502,-1063.16 502,-1057.16 502,-1057.16 502,-1042.76 502,-1042.76 502,-1036.76 508,-1030.76 514,-1030.76 514,-1030.76 671.98,-1030.76 671.98,-1030.76 677.98,-1030.76 683.98,-1036.76 683.98,-1042.76 683.98,-1042.76 683.98,-1057.16 683.98,-1057.16 683.98,-1063.16 677.98,-1069.16 671.98,-1069.16"/>
<text xml:space="preserve" text-anchor="start" x="514.24" y="-1052.46" font-family="Helvetica,sans-Serif" font-size="10.00">enforce writes the VERDICT ONLY:</text>
<text xml:space="preserve" text-anchor="start" x="514.24" y="-1040.46" font-family="Helvetica,sans-Serif" font-size="10.00">verification.source_tier = unverified</text>
</g>
<!-- enf1&#45;&gt;enf2 -->
<g id="edge2" class="edge">
<title>enf1&#45;&gt;enf2</title>
<path fill="none" stroke="#444444" d="M592.99,-1123.47C592.99,-1111.23 592.99,-1094.87 592.99,-1080.79"/>
<polygon fill="#444444" stroke="#444444" points="596.49,-1081.15 592.99,-1071.15 589.49,-1081.15 596.49,-1081.15"/>
<text xml:space="preserve" text-anchor="middle" x="657.12" y="-1093.11" font-family="Helvetica,sans-Serif" font-size="9.00">anchors diverge (e.g. semantic)</text>
</g>
<!-- enf3 -->
<g id="node4" class="node">
<title>enf3</title>
<path fill="#dbe4ff" stroke="#3355aa" d="M381.61,-957.76C381.61,-957.76 146.38,-957.76 146.38,-957.76 140.38,-957.76 134.38,-951.76 134.38,-945.76 134.38,-945.76 134.38,-931.36 134.38,-931.36 134.38,-925.36 140.38,-919.36 146.38,-919.36 146.38,-919.36 381.61,-919.36 381.61,-919.36 387.61,-919.36 393.61,-925.36 393.61,-931.36 393.61,-931.36 393.61,-945.76 393.61,-945.76 393.61,-951.76 387.61,-957.76 381.61,-957.76"/>
<text xml:space="preserve" text-anchor="start" x="146.62" y="-941.06" font-family="Helvetica,sans-Serif" font-size="10.00">enforce emits VCL_DRIFT_DETECTED (WARNING)</text>
<text xml:space="preserve" text-anchor="start" x="146.62" y="-929.06" font-family="Helvetica,sans-Serif" font-size="10.00">to logs/vcl&#45;drift</text>
</g>
<!-- enf2&#45;&gt;enf3 -->
<g id="edge3" class="edge">
<title>enf2&#45;&gt;enf3</title>
<path fill="none" stroke="#444444" d="M536.81,-1030.28C479.76,-1011.31 391.43,-981.94 330.82,-961.78"/>
<polygon fill="#444444" stroke="#444444" points="332.25,-958.57 321.65,-958.73 330.04,-965.21 332.25,-958.57"/>
</g>
<!-- adv -->
<g id="node5" class="node">
<title>adv</title>
<path fill="#ece3fb" stroke="#6b46c1" d="M743.98,-965.76C743.98,-965.76 442,-965.76 442,-965.76 436,-965.76 430,-959.76 430,-953.76 430,-953.76 430,-923.36 430,-923.36 430,-917.36 436,-911.36 442,-911.36 442,-911.36 743.98,-911.36 743.98,-911.36 749.98,-911.36 755.98,-917.36 755.98,-923.36 755.98,-923.36 755.98,-953.76 755.98,-953.76 755.98,-959.76 749.98,-965.76 743.98,-965.76"/>
<text xml:space="preserve" text-anchor="start" x="442.24" y="-950.06" font-family="Helvetica,sans-Serif" font-weight="bold" font-size="10.00">SEPARATE advisory step — the AI lives here, not in enforce</text>
<text xml:space="preserve" text-anchor="start" x="442.24" y="-940.06" font-family="Helvetica,sans-Serif" font-size="10.00">vcl_triage.py (LLM) classifies cosmetic / substantive;</text>
<text xml:space="preserve" text-anchor="start" x="442.24" y="-930.06" font-family="Helvetica,sans-Serif" font-size="10.00">write_drift_aspect.py writes Governance Drift = PENDING_REVIEW</text>
<text xml:space="preserve" text-anchor="start" x="442.24" y="-920.06" font-family="Helvetica,sans-Serif" font-size="10.00">+ classification — DISPLAY ONLY, the gate never reads it</text>
</g>
<!-- enf2&#45;&gt;adv -->
<g id="edge14" class="edge">
<title>enf2&#45;&gt;adv</title>
<path fill="none" stroke="#6b46c1" stroke-dasharray="5,2" d="M592.99,-1030.4C592.99,-1015.9 592.99,-995.26 592.99,-977.32"/>
<polygon fill="#6b46c1" stroke="#6b46c1" points="596.49,-977.53 592.99,-967.53 589.49,-977.53 596.49,-977.53"/>
<text xml:space="preserve" text-anchor="middle" x="629.37" y="-1000.21" font-family="Helvetica,sans-Serif" font-size="9.00" fill="#6b46c1">separate advisory</text>
<text xml:space="preserve" text-anchor="middle" x="629.37" y="-989.71" font-family="Helvetica,sans-Serif" font-size="9.00" fill="#6b46c1">write (display)</text>
</g>
<!-- block -->
<g id="node6" class="node">
<title>block</title>
<path fill="#dcf3e2" stroke="#2f7d3a" d="M1132.48,-965.76C1132.48,-965.76 803.5,-965.76 803.5,-965.76 797.5,-965.76 791.5,-959.76 791.5,-953.76 791.5,-953.76 791.5,-923.36 791.5,-923.36 791.5,-917.36 797.5,-911.36 803.5,-911.36 803.5,-911.36 1132.48,-911.36 1132.48,-911.36 1138.48,-911.36 1144.48,-917.36 1144.48,-923.36 1144.48,-923.36 1144.48,-953.76 1144.48,-953.76 1144.48,-959.76 1138.48,-965.76 1132.48,-965.76"/>
<text xml:space="preserve" text-anchor="start" x="803.74" y="-950.06" font-family="Helvetica,sans-Serif" font-weight="bold" font-size="10.00">Meanwhile — agents are already blocked</text>
<text xml:space="preserve" text-anchor="start" x="803.74" y="-940.06" font-family="Helvetica,sans-Serif" font-size="10.00">Agent → wrapper lookup_context → wrapper reads the verdict → unverified</text>
<text xml:space="preserve" text-anchor="start" x="803.74" y="-930.06" font-family="Helvetica,sans-Serif" font-size="10.00">→ WITHHOLD + honest note (&quot;do not infer or fabricate&quot;)</text>
<text xml:space="preserve" text-anchor="start" x="803.74" y="-920.06" font-family="Helvetica,sans-Serif" font-size="10.00">the action tool ALSO refuses on the verdict — two structural layers</text>
</g>
<!-- enf2&#45;&gt;block -->
<g id="edge15" class="edge">
<title>enf2&#45;&gt;block</title>
<path fill="none" stroke="#2f7d3a" stroke-dasharray="5,2" d="M657.03,-1030.28C714.3,-1013.57 799.22,-988.79 865.86,-969.35"/>
<polygon fill="#2f7d3a" stroke="#2f7d3a" points="866.74,-972.74 875.36,-966.58 864.78,-966.02 866.74,-972.74"/>
<text xml:space="preserve" text-anchor="middle" x="821.73" y="-1000.21" font-family="Helvetica,sans-Serif" font-size="9.00" fill="#2f7d3a">verdict already</text>
<text xml:space="preserve" text-anchor="middle" x="821.73" y="-989.71" font-family="Helvetica,sans-Serif" font-size="9.00" fill="#2f7d3a">gates agents</text>
</g>
<!-- alert -->
<g id="node7" class="node">
<title>alert</title>
<path fill="#eef0f2" stroke="#555566" d="M418.36,-866.36C418.36,-866.36 109.62,-866.36 109.62,-866.36 103.62,-866.36 97.62,-860.36 97.62,-854.36 97.62,-854.36 97.62,-827.96 97.62,-827.96 97.62,-821.96 103.62,-815.96 109.62,-815.96 109.62,-815.96 418.36,-815.96 418.36,-815.96 424.36,-815.96 430.36,-821.96 430.36,-827.96 430.36,-827.96 430.36,-854.36 430.36,-854.36 430.36,-860.36 424.36,-866.36 418.36,-866.36"/>
<text xml:space="preserve" text-anchor="start" x="109.87" y="-849.66" font-family="Helvetica,sans-Serif" font-size="10.00">Logging → Monitoring policy &#39;VCL Drift Detected&#39;</text>
<text xml:space="preserve" text-anchor="start" x="109.87" y="-837.66" font-family="Helvetica,sans-Serif" font-size="10.00">→ Slack + email: &#160;SEE url &#160;+ &#160;REVIEW deep link</text>
<text xml:space="preserve" text-anchor="start" x="109.87" y="-825.66" font-family="Helvetica,sans-Serif" font-size="10.00">→ walkthrough_substantive.md &#160;(safe default: NO re&#45;certify command)</text>
</g>
<!-- enf3&#45;&gt;alert -->
<g id="edge4" class="edge">
<title>enf3&#45;&gt;alert</title>
<path fill="none" stroke="#444444" d="M263.99,-919.17C263.99,-907.49 263.99,-891.99 263.99,-877.96"/>
<polygon fill="#444444" stroke="#444444" points="267.49,-878.15 263.99,-868.15 260.49,-878.15 267.49,-878.15"/>
</g>
<!-- see -->
<g id="node8" class="node">
<title>see</title>
<path fill="#fdf0d5" stroke="#b8860b" d="M423.98,-761.46C423.98,-761.46 104,-761.46 104,-761.46 98,-761.46 92,-755.46 92,-749.46 92,-749.46 92,-735.06 92,-735.06 92,-729.06 98,-723.06 104,-723.06 104,-723.06 423.98,-723.06 423.98,-723.06 429.98,-723.06 435.98,-729.06 435.98,-735.06 435.98,-735.06 435.98,-749.46 435.98,-749.46 435.98,-755.46 429.98,-761.46 423.98,-761.46"/>
<text xml:space="preserve" text-anchor="start" x="104.24" y="-744.76" font-family="Helvetica,sans-Serif" font-size="10.00">Steward — 1. SEE: open the entry</text>
<text xml:space="preserve" text-anchor="start" x="104.24" y="-732.76" font-family="Helvetica,sans-Serif" font-size="10.00">reads which dimension drifted + the AI cosmetic/substantive assessment</text>
</g>
<!-- alert&#45;&gt;see -->
<g id="edge5" class="edge">
<title>alert&#45;&gt;see</title>
<path fill="none" stroke="#444444" d="M263.99,-815.71C263.99,-802.79 263.99,-786.82 263.99,-773.16"/>
<polygon fill="#444444" stroke="#444444" points="267.49,-773.41 263.99,-763.41 260.49,-773.41 267.49,-773.41"/>
<text xml:space="preserve" text-anchor="middle" x="296.24" y="-785.41" font-family="Helvetica,sans-Serif" font-size="9.00">steward notified</text>
</g>
<!-- actsub -->
<g id="node9" class="node">
<title>actsub</title>
<path fill="#fdf0d5" stroke="#b8860b" d="M419.86,-678.06C419.86,-678.06 108.12,-678.06 108.12,-678.06 102.12,-678.06 96.12,-672.06 96.12,-666.06 96.12,-666.06 96.12,-635.66 96.12,-635.66 96.12,-629.66 102.12,-623.66 108.12,-623.66 108.12,-623.66 419.86,-623.66 419.86,-623.66 425.86,-623.66 431.86,-629.66 431.86,-635.66 431.86,-635.66 431.86,-666.06 431.86,-666.06 431.86,-672.06 425.86,-678.06 419.86,-678.06"/>
<text xml:space="preserve" text-anchor="start" x="108.37" y="-662.36" font-family="Helvetica,sans-Serif" font-weight="bold" font-size="10.00">2. REVIEW — the deep link opens the SUBSTANTIVE walkthrough</text>
<text xml:space="preserve" text-anchor="start" x="108.37" y="-652.36" font-family="Helvetica,sans-Serif" font-size="10.00">EVERY alert lands here first. This file has NO re&#45;certify command.</text>
<text xml:space="preserve" text-anchor="start" x="108.37" y="-642.36" font-family="Helvetica,sans-Serif" font-size="10.00">The re&#45;certify command is reachable ONLY via the onward link below,</text>
<text xml:space="preserve" text-anchor="start" x="108.37" y="-632.36" font-family="Helvetica,sans-Serif" font-size="10.00">after the steward reads the classification — structural, not a warning.</text>
</g>
<!-- see&#45;&gt;actsub -->
<g id="edge6" class="edge">
<title>see&#45;&gt;actsub</title>
<path fill="none" stroke="#444444" d="M263.99,-722.74C263.99,-713.25 263.99,-701.33 263.99,-689.98"/>
<polygon fill="#444444" stroke="#444444" points="267.49,-690.01 263.99,-680.01 260.49,-690.01 267.49,-690.01"/>
</g>
<!-- decision -->
<g id="node10" class="node">
<title>decision</title>
<path fill="#fff3cd" stroke="#b8860b" d="M252.53,-575.11C252.53,-575.11 188.75,-555.33 188.75,-555.33 183.02,-553.56 183.02,-550 188.75,-548.23 188.75,-548.23 252.53,-528.45 252.53,-528.45 258.26,-526.68 269.72,-526.68 275.45,-528.45 275.45,-528.45 339.23,-548.23 339.23,-548.23 344.96,-550 344.96,-553.56 339.23,-555.33 339.23,-555.33 275.45,-575.11 275.45,-575.11 269.72,-576.88 258.26,-576.88 252.53,-575.11"/>
<text xml:space="preserve" text-anchor="start" x="192.51" y="-554.28" font-family="Helvetica,sans-Serif" font-size="10.00">AI assessment?</text>
<text xml:space="preserve" text-anchor="middle" x="263.99" y="-542.28" font-family="Helvetica,sans-Serif" font-size="10.00">(read on the entry)</text>
</g>
<!-- actsub&#45;&gt;decision -->
<g id="edge7" class="edge">
<title>actsub&#45;&gt;decision</title>
<path fill="none" stroke="#444444" d="M263.99,-623.33C263.99,-613.19 263.99,-601.42 263.99,-590.44"/>
<polygon fill="#444444" stroke="#444444" points="267.49,-590.45 263.99,-580.45 260.49,-590.45 267.49,-590.45"/>
</g>
<!-- onward -->
<g id="node11" class="node">
<title>onward</title>
<path fill="#fdf0d5" stroke="#b8860b" stroke-dasharray="5,2" d="M205.98,-470.4C205.98,-470.4 12,-470.4 12,-470.4 6,-470.4 0,-464.4 0,-458.4 0,-458.4 0,-444 0,-444 0,-438 6,-432 12,-432 12,-432 205.98,-432 205.98,-432 211.98,-432 217.98,-438 217.98,-444 217.98,-444 217.98,-458.4 217.98,-458.4 217.98,-464.4 211.98,-470.4 205.98,-470.4"/>
<text xml:space="preserve" text-anchor="start" x="12.24" y="-453.7" font-family="Helvetica,sans-Serif" font-size="10.00">onward LINK (a link, not a command)</text>
<text xml:space="preserve" text-anchor="start" x="12.24" y="-441.7" font-family="Helvetica,sans-Serif" font-size="10.00">→ opens steward/walkthrough_cosmetic.md</text>
</g>
<!-- decision&#45;&gt;onward -->
<g id="edge8" class="edge">
<title>decision&#45;&gt;onward</title>
<path fill="none" stroke="#444444" d="M236.28,-533.16C211.69,-517.52 175.52,-494.51 148.01,-477.02"/>
<polygon fill="#444444" stroke="#444444" points="149.9,-474.07 139.58,-471.66 146.14,-479.98 149.9,-474.07"/>
<text xml:space="preserve" text-anchor="middle" x="204.49" y="-494.35" font-family="Helvetica,sans-Serif" font-size="9.00">cosmetic</text>
</g>
<!-- s1 -->
<g id="node14" class="node">
<title>s1</title>
<path fill="#fdf0d5" stroke="#b8860b" d="M574.36,-470.4C574.36,-470.4 265.62,-470.4 265.62,-470.4 259.62,-470.4 253.62,-464.4 253.62,-458.4 253.62,-458.4 253.62,-444 253.62,-444 253.62,-438 259.62,-432 265.62,-432 265.62,-432 574.36,-432 574.36,-432 580.36,-432 586.36,-438 586.36,-444 586.36,-444 586.36,-458.4 586.36,-458.4 586.36,-464.4 580.36,-470.4 574.36,-470.4"/>
<text xml:space="preserve" text-anchor="start" x="265.87" y="-453.7" font-family="Helvetica,sans-Serif" font-size="10.00">substantive: investigate — which rule changed, confirm with the owner</text>
<text xml:space="preserve" text-anchor="start" x="265.87" y="-441.7" font-family="Helvetica,sans-Serif" font-size="10.00">NO re&#45;certify command exists on this path</text>
</g>
<!-- decision&#45;&gt;s1 -->
<g id="edge12" class="edge">
<title>decision&#45;&gt;s1</title>
<path fill="none" stroke="#444444" d="M291.88,-533.16C316.73,-517.45 353.35,-494.31 381.08,-476.79"/>
<polygon fill="#444444" stroke="#444444" points="382.62,-479.95 389.21,-471.65 378.88,-474.04 382.62,-479.95"/>
<text xml:space="preserve" text-anchor="middle" x="401.34" y="-494.35" font-family="Helvetica,sans-Serif" font-size="9.00">substantive / unknown</text>
</g>
<!-- c2 -->
<g id="node12" class="node">
<title>c2</title>
<path fill="#dbe4ff" stroke="#3355aa" d="M323.23,-377.5C323.23,-377.5 70.75,-377.5 70.75,-377.5 64.75,-377.5 58.75,-371.5 58.75,-365.5 58.75,-365.5 58.75,-339.1 58.75,-339.1 58.75,-333.1 64.75,-327.1 70.75,-327.1 70.75,-327.1 323.23,-327.1 323.23,-327.1 329.23,-327.1 335.23,-333.1 335.23,-339.1 335.23,-339.1 335.23,-365.5 335.23,-365.5 335.23,-371.5 329.23,-377.5 323.23,-377.5"/>
<text xml:space="preserve" text-anchor="start" x="70.99" y="-360.8" font-family="Helvetica,sans-Serif" font-size="10.00">vcl.py seal &#160;(steward AUTHORIZES, engine CERTIFIES)</text>
<text xml:space="preserve" text-anchor="start" x="70.99" y="-348.8" font-family="Helvetica,sans-Serif" font-size="10.00">verification = verified + sealed_by + seal_event_id</text>
<text xml:space="preserve" text-anchor="start" x="70.99" y="-336.8" font-family="Helvetica,sans-Serif" font-size="10.00">— VERDICT ONLY</text>
</g>
<!-- onward&#45;&gt;c2 -->
<g id="edge9" class="edge">
<title>onward&#45;&gt;c2</title>
<path fill="none" stroke="#444444" d="M125.96,-431.52C137.67,-418.62 153.56,-401.12 167.34,-385.95"/>
<polygon fill="#444444" stroke="#444444" points="169.59,-388.68 173.72,-378.92 164.41,-383.97 169.59,-388.68"/>
<text xml:space="preserve" text-anchor="middle" x="188.62" y="-401.45" font-family="Helvetica,sans-Serif" font-size="9.00">run the command</text>
</g>
<!-- c3 -->
<g id="node13" class="node">
<title>c3</title>
<path fill="#ece3fb" stroke="#6b46c1" d="M322.48,-244.7C322.48,-244.7 71.5,-244.7 71.5,-244.7 65.5,-244.7 59.5,-238.7 59.5,-232.7 59.5,-232.7 59.5,-206.3 59.5,-206.3 59.5,-200.3 65.5,-194.3 71.5,-194.3 71.5,-194.3 322.48,-194.3 322.48,-194.3 328.48,-194.3 334.48,-200.3 334.48,-206.3 334.48,-206.3 334.48,-232.7 334.48,-232.7 334.48,-238.7 328.48,-244.7 322.48,-244.7"/>
<text xml:space="preserve" text-anchor="start" x="71.74" y="-228" font-family="Helvetica,sans-Serif" font-size="10.00">… &amp;&amp; write_drift_aspect.py &#45;&#45;resolve</text>
<text xml:space="preserve" text-anchor="start" x="71.74" y="-216" font-family="Helvetica,sans-Serif" font-size="10.00">Governance Drift = RESOLVED</text>
<text xml:space="preserve" text-anchor="start" x="71.74" y="-204" font-family="Helvetica,sans-Serif" font-size="10.00">— DISPLAY ONLY, a SEPARATE chained step (not seal)</text>
</g>
<!-- c2&#45;&gt;c3 -->
<g id="edge10" class="edge">
<title>c2&#45;&gt;c3</title>
<path fill="none" stroke="#444444" d="M196.99,-326.7C196.99,-306.88 196.99,-278.73 196.99,-256.39"/>
<polygon fill="#444444" stroke="#444444" points="200.49,-256.51 196.99,-246.51 193.49,-256.51 200.49,-256.51"/>
<text xml:space="preserve" text-anchor="middle" x="223.62" y="-282.6" font-family="Helvetica,sans-Serif" font-size="9.00">chained (&amp;&amp;)</text>
</g>
<!-- deliver -->
<g id="node16" class="node">
<title>deliver</title>
<path fill="#dcf3e2" stroke="#2f7d3a" d="M320.61,-139.8C320.61,-139.8 115.38,-139.8 115.38,-139.8 109.38,-139.8 103.38,-133.8 103.38,-127.8 103.38,-127.8 103.38,-113.4 103.38,-113.4 103.38,-107.4 109.38,-101.4 115.38,-101.4 115.38,-101.4 320.61,-101.4 320.61,-101.4 326.61,-101.4 332.61,-107.4 332.61,-113.4 332.61,-113.4 332.61,-127.8 332.61,-127.8 332.61,-133.8 326.61,-139.8 320.61,-139.8"/>
<text xml:space="preserve" text-anchor="start" x="115.62" y="-123.1" font-family="Helvetica,sans-Serif" font-size="10.00">Agent retry → wrapper reads verdict → verified</text>
<text xml:space="preserve" text-anchor="start" x="115.62" y="-111.1" font-family="Helvetica,sans-Serif" font-size="10.00">→ DELIVER full governed context</text>
</g>
<!-- c3&#45;&gt;deliver -->
<g id="edge11" class="edge">
<title>c3&#45;&gt;deliver</title>
<path fill="none" stroke="#444444" d="M202.29,-194.05C205.12,-181 208.62,-164.83 211.6,-151.09"/>
<polygon fill="#444444" stroke="#444444" points="214.93,-152.23 213.63,-141.71 208.09,-150.74 214.93,-152.23"/>
<text xml:space="preserve" text-anchor="middle" x="269.5" y="-163.75" font-family="Helvetica,sans-Serif" font-size="9.00">verified → context flows again</text>
</g>
<!-- s2 -->
<g id="node15" class="node">
<title>s2</title>
<path fill="#f6d6d6" stroke="#c0272d" d="M508.11,-305.1C508.11,-305.1 293.88,-305.1 293.88,-305.1 287.88,-305.1 281.88,-299.1 281.88,-293.1 281.88,-293.1 281.88,-278.7 281.88,-278.7 281.88,-272.7 287.88,-266.7 293.88,-266.7 293.88,-266.7 508.11,-266.7 508.11,-266.7 514.11,-266.7 520.11,-272.7 520.11,-278.7 520.11,-278.7 520.11,-293.1 520.11,-293.1 520.11,-299.1 514.11,-305.1 508.11,-305.1"/>
<text xml:space="preserve" text-anchor="start" x="294.12" y="-288.4" font-family="Helvetica,sans-Serif" font-size="10.00">stays UNVERIFIED — context remains withheld</text>
<text xml:space="preserve" text-anchor="start" x="294.12" y="-276.4" font-family="Helvetica,sans-Serif" font-size="10.00">until the change is resolved (the safe default)</text>
</g>
<!-- s1&#45;&gt;s2 -->
<g id="edge13" class="edge">
<title>s1&#45;&gt;s2</title>
<path fill="none" stroke="#444444" d="M417.85,-431.78C414.6,-403.85 408.39,-350.48 404.48,-316.89"/>
<polygon fill="#444444" stroke="#444444" points="407.96,-316.53 403.33,-307 401.01,-317.34 407.96,-316.53"/>
</g>
<!-- footer -->
<g id="node17" class="node">
<title>footer</title>
<polygon fill="#fffbe6" stroke="#b8860b" points="499.61,-56.4 108.38,-56.4 108.38,0 505.61,0 505.61,-50.4 499.61,-56.4"/>
<polyline fill="none" stroke="#b8860b" points="499.61,-56.4 499.61,-50.4"/>
<polyline fill="none" stroke="#b8860b" points="505.61,-50.4 499.61,-50.4"/>
<text xml:space="preserve" text-anchor="start" x="120.62" y="-40.65" font-family="Helvetica,sans-Serif" font-size="9.00">The human AUTHORIZES; the deterministic engine CERTIFIES — no status field is ever</text>
<text xml:space="preserve" text-anchor="start" x="120.62" y="-30.15" font-family="Helvetica,sans-Serif" font-size="9.00">hand&#45;flipped. The VERDICT (verification aspect) and the DISPLAY (governance&#45;drift aspect)</text>
<text xml:space="preserve" text-anchor="start" x="120.62" y="-19.65" font-family="Helvetica,sans-Serif" font-size="9.00">are written by DIFFERENT components. Every alert defaults to the no&#45;seal file; the seal is</text>
<text xml:space="preserve" text-anchor="start" x="120.62" y="-9.15" font-family="Helvetica,sans-Serif" font-size="9.00">reachable only after passing through the file that requires reading the classification.</text>
</g>
<!-- s2&#45;&gt;footer -->
<!-- deliver&#45;&gt;footer -->
</g>
</svg>
